<?xml version="1.0" encoding="UTF-8"?>
<svg xmlns="http://www.w3.org/2000/svg" xmlns:xlink="http://www.w3.org/1999/xlink" width="375pt" height="374.999991pt" viewBox="0 0 375 374.999991" version="1.2">
<defs>
<clipPath id="clip1">
  <path d="M 116.066406 81.117188 L 258.566406 81.117188 L 258.566406 313.617188 L 116.066406 313.617188 Z M 116.066406 81.117188 "/>
</clipPath>
<clipPath id="clip2">
  <path d="M 140.21875 140.21875 L 234.71875 140.21875 L 234.71875 234.71875 L 140.21875 234.71875 Z M 140.21875 140.21875 "/>
</clipPath>
<clipPath id="clip3">
  <path d="M 131.089844 99.707031 L 165.589844 99.707031 L 165.589844 140.207031 L 131.089844 140.207031 Z M 131.089844 99.707031 "/>
</clipPath>
</defs>
<g id="surface1">
<g clip-path="url(#clip1)" clip-rule="nonzero">
<path style=" stroke:none;fill-rule:nonzero;fill:rgb(14.509583%,20.388794%,22.349548%);fill-opacity:1;" d="M 178.410156 286.738281 C 178.410156 281.8125 182.402344 277.800781 187.316406 277.800781 C 192.230469 277.800781 196.222656 281.8125 196.222656 286.738281 C 196.222656 291.664062 192.230469 295.675781 187.316406 295.675781 C 182.402344 295.675781 178.410156 291.664062 178.410156 286.738281 Z M 258.566406 103.527344 L 258.566406 291.207031 C 258.566406 303.527344 248.582031 313.550781 236.300781 313.550781 L 138.332031 313.550781 C 126.050781 313.550781 116.066406 303.527344 116.066406 291.207031 L 116.066406 103.527344 C 116.066406 91.210938 126.050781 81.1875 138.332031 81.1875 L 236.300781 81.1875 C 248.582031 81.1875 258.566406 91.210938 258.566406 103.527344 Z M 172.253906 90.121094 L 173.019531 91.648438 C 175.296875 96.21875 179.871094 99.058594 184.96875 99.058594 L 189.667969 99.058594 C 194.761719 99.058594 199.335938 96.21875 201.617188 91.648438 L 202.382812 90.121094 Z M 249.660156 268.863281 L 124.972656 268.863281 L 124.972656 291.207031 C 124.972656 298.597656 130.964844 304.613281 138.332031 304.613281 L 236.300781 304.613281 C 243.667969 304.613281 249.660156 298.597656 249.660156 291.207031 Z M 249.660156 103.527344 C 249.660156 96.136719 243.667969 90.121094 236.300781 90.121094 L 212.335938 90.121094 L 209.582031 95.648438 C 205.78125 103.265625 198.15625 107.996094 189.667969 107.996094 L 184.96875 107.996094 C 176.480469 107.996094 168.851562 103.265625 165.050781 95.648438 L 162.300781 90.121094 L 138.332031 90.121094 C 130.964844 90.121094 124.972656 96.136719 124.972656 103.527344 L 124.972656 259.925781 L 249.660156 259.925781 Z M 249.660156 103.527344 "/>
</g>
<path style=" stroke:none;fill-rule:nonzero;fill:rgb(48.629761%,53.729248%,54.508972%);fill-opacity:1;" d="M 152.429688 215.914062 C 152.890625 216.46875 153.355469 217.015625 153.828125 217.550781 C 154.066406 215.597656 154.59375 213.457031 155.148438 212.195312 C 155.507812 211.386719 156.167969 210.335938 156.859375 209.234375 C 157.765625 207.808594 158.6875 206.335938 159.265625 204.960938 C 159.84375 203.574219 159.800781 200.046875 159.769531 195.972656 C 159.726562 192.289062 159.683594 188.476562 160.117188 186.34375 C 160.671875 183.5625 163.203125 176.558594 164.988281 171.769531 C 165.21875 172.988281 165.585938 174.320312 165.753906 174.878906 C 165.859375 175.234375 166.183594 175.46875 166.53125 175.46875 C 166.617188 175.46875 166.6875 175.457031 166.761719 175.433594 C 167.191406 175.308594 167.445312 174.859375 167.320312 174.425781 C 166.816406 172.671875 166.34375 170.480469 166.4375 169.996094 C 166.636719 168.96875 167.128906 164.695312 167.152344 164.515625 C 167.183594 162.8125 167.320312 158.363281 167.625 157.207031 C 168 155.800781 169.734375 153.132812 170.855469 152.492188 C 171.53125 152.105469 173.167969 152.597656 174.113281 153.070312 C 174.4375 153.332031 176.105469 154.738281 178.449219 157.523438 C 181.042969 160.597656 185.199219 170.941406 185.242188 171.046875 C 185.410156 171.457031 185.882812 171.664062 186.304688 171.496094 C 186.722656 171.328125 186.921875 170.855469 186.753906 170.4375 C 186.640625 170.144531 184.769531 165.5 182.722656 161.46875 C 184.792969 161.492188 190.28125 161.605469 194.28125 162.308594 C 199.164062 163.171875 203.566406 165.984375 203.605469 166.003906 C 203.742188 166.089844 203.902344 166.140625 204.046875 166.140625 C 204.109375 166.140625 204.175781 166.132812 204.238281 166.121094 L 207.617188 165.34375 C 206.042969 166.46875 204.476562 167.683594 203.703125 168.535156 C 202.945312 169.355469 201.203125 172.042969 201.015625 172.347656 C 200.761719 172.726562 200.878906 173.238281 201.253906 173.480469 C 201.632812 173.722656 202.136719 173.617188 202.378906 173.238281 C 202.894531 172.441406 204.351562 170.246094 204.910156 169.628906 C 206.210938 168.210938 210.210938 165.5 212.039062 164.304688 C 212.121094 164.261719 212.195312 164.21875 212.269531 164.15625 C 212.6875 163.882812 212.953125 163.707031 212.960938 163.707031 C 216.101562 162.109375 220.113281 160.871094 220.761719 161.699219 C 221.910156 163.191406 220.722656 165.125 220.710938 165.132812 L 215.597656 173.199219 C 215.242188 173.765625 215.050781 174.417969 215.050781 175.089844 L 215.050781 176.234375 C 215.050781 176.746094 214.957031 177.242188 214.769531 177.722656 L 213.550781 180.820312 C 213.308594 181.429688 213.277344 182.113281 213.457031 182.753906 C 214.011719 184.675781 215.261719 189.695312 215.019531 194.722656 C 214.746094 200.773438 209.203125 205.527344 209.140625 205.570312 C 208.972656 205.71875 208.867188 205.925781 208.855469 206.148438 C 208.835938 206.367188 208.917969 206.578125 209.066406 206.746094 C 209.917969 207.691406 212.21875 210.503906 212.585938 212.144531 C 212.691406 212.582031 212.773438 213.046875 212.867188 213.527344 C 213.277344 215.597656 213.695312 217.738281 214.9375 218.882812 C 215.449219 219.355469 216.363281 220.257812 217.246094 221.140625 C 217.289062 221.183594 217.332031 221.226562 217.371094 221.265625 C 217.78125 220.898438 218.179688 220.542969 218.570312 220.15625 C 218.507812 220.089844 218.445312 220.027344 218.390625 219.976562 C 217.457031 219.050781 216.574219 218.179688 216.039062 217.6875 C 215.199219 216.910156 214.808594 214.945312 214.472656 213.214844 C 214.378906 212.71875 214.285156 212.238281 214.179688 211.785156 C 213.761719 209.9375 211.785156 207.429688 210.808594 206.261719 C 212.375 204.75 216.394531 200.339844 216.660156 194.796875 C 216.898438 189.527344 215.597656 184.308594 215.03125 182.300781 C 214.945312 182.007812 214.957031 181.691406 215.074219 181.410156 L 216.289062 178.324219 C 216.554688 177.652344 216.691406 176.945312 216.691406 176.234375 L 216.691406 175.089844 C 216.691406 174.722656 216.785156 174.375 216.984375 174.070312 L 222.097656 166.007812 C 222.171875 165.890625 223.882812 163.085938 222.054688 160.714844 C 220.269531 158.394531 214.023438 161.335938 212.152344 162.289062 C 212.089844 162.332031 211.777344 162.53125 211.324219 162.824219 L 204.195312 164.453125 C 203.09375 163.78125 199.09375 161.5 194.566406 160.703125 C 189.433594 159.800781 182.1875 159.832031 181.882812 159.832031 C 181.871094 159.832031 181.871094 159.832031 181.863281 159.832031 C 181.117188 158.457031 180.371094 157.257812 179.699219 156.472656 C 176.96875 153.226562 175.140625 151.800781 175.058594 151.738281 C 175.027344 151.707031 174.984375 151.671875 174.941406 151.652344 C 174.617188 151.496094 171.78125 150.078125 170.039062 151.066406 C 168.378906 152.019531 166.46875 155.191406 166.046875 156.789062 C 165.628906 158.339844 165.535156 163.789062 165.523438 164.398438 C 165.460938 164.925781 165.375 165.660156 165.28125 166.425781 C 164.746094 167.792969 159.390625 181.628906 158.507812 186.03125 C 158.058594 188.320312 158.089844 192.214844 158.132812 195.984375 C 158.164062 199.394531 158.203125 203.261719 157.753906 204.332031 C 157.238281 205.582031 156.347656 207 155.484375 208.363281 C 154.75 209.519531 154.058594 210.621094 153.648438 211.535156 C 153.207031 212.53125 152.746094 214.191406 152.429688 215.914062 Z M 152.429688 215.914062 "/>
<path style=" stroke:none;fill-rule:nonzero;fill:rgb(48.629761%,53.729248%,54.508972%);fill-opacity:1;" d="M 203.761719 194.394531 C 203.761719 194.667969 203.707031 194.929688 203.605469 195.183594 C 203.5 195.4375 203.347656 195.660156 203.15625 195.855469 C 202.960938 196.046875 202.738281 196.199219 202.484375 196.300781 C 202.234375 196.40625 201.96875 196.460938 201.695312 196.460938 C 201.421875 196.460938 201.160156 196.40625 200.90625 196.300781 C 200.652344 196.199219 200.429688 196.046875 200.234375 195.855469 C 200.042969 195.660156 199.890625 195.4375 199.789062 195.183594 C 199.683594 194.929688 199.628906 194.667969 199.628906 194.394531 C 199.628906 194.121094 199.683594 193.855469 199.789062 193.605469 C 199.890625 193.351562 200.042969 193.128906 200.234375 192.933594 C 200.429688 192.742188 200.652344 192.589844 200.90625 192.488281 C 201.160156 192.382812 201.421875 192.328125 201.695312 192.328125 C 201.96875 192.328125 202.234375 192.382812 202.484375 192.488281 C 202.738281 192.589844 202.960938 192.742188 203.15625 192.933594 C 203.347656 193.128906 203.5 193.351562 203.605469 193.605469 C 203.707031 193.855469 203.761719 194.121094 203.761719 194.394531 Z M 203.761719 194.394531 "/>
<path style=" stroke:none;fill-rule:nonzero;fill:rgb(48.629761%,53.729248%,54.508972%);fill-opacity:1;" d="M 182.671875 191.707031 C 182.671875 191.980469 182.617188 192.242188 182.511719 192.496094 C 182.40625 192.75 182.257812 192.972656 182.066406 193.164062 C 181.871094 193.359375 181.648438 193.507812 181.394531 193.613281 C 181.140625 193.71875 180.878906 193.769531 180.605469 193.769531 C 180.332031 193.769531 180.066406 193.71875 179.816406 193.613281 C 179.5625 193.507812 179.339844 193.359375 179.144531 193.164062 C 178.949219 192.972656 178.800781 192.75 178.695312 192.496094 C 178.59375 192.242188 178.539062 191.980469 178.539062 191.707031 C 178.539062 191.429688 178.59375 191.167969 178.695312 190.914062 C 178.800781 190.664062 178.949219 190.4375 179.144531 190.246094 C 179.339844 190.050781 179.5625 189.902344 179.816406 189.796875 C 180.066406 189.691406 180.332031 189.640625 180.605469 189.640625 C 180.878906 189.640625 181.140625 189.691406 181.394531 189.796875 C 181.648438 189.902344 181.871094 190.050781 182.066406 190.246094 C 182.257812 190.4375 182.40625 190.664062 182.511719 190.914062 C 182.617188 191.167969 182.671875 191.429688 182.671875 191.707031 Z M 182.671875 191.707031 "/>
<path style=" stroke:none;fill-rule:nonzero;fill:rgb(48.629761%,53.729248%,54.508972%);fill-opacity:1;" d="M 206.144531 195.480469 C 206.496094 194.507812 206.800781 193.492188 206.648438 192.613281 C 206.507812 191.792969 205.917969 191.546875 205.523438 191.382812 C 204.785156 191.070312 203.753906 190.707031 202.726562 190.605469 C 200.988281 190.429688 199.238281 191.042969 198.109375 192.222656 C 196.875 193.515625 195.992188 196.46875 197.480469 197.96875 C 197.539062 198.03125 197.601562 198.085938 197.667969 198.140625 C 198.414062 198.753906 199.496094 199.0625 200.882812 199.0625 C 201.191406 199.0625 201.488281 199.046875 201.761719 199.019531 C 202.691406 198.9375 203.449219 198.707031 204.078125 198.316406 C 205.320312 197.546875 205.972656 195.949219 206.144531 195.480469 Z M 204.609375 194.921875 C 204.34375 195.65625 203.808594 196.5625 203.214844 196.929688 C 202.808594 197.179688 202.285156 197.332031 201.613281 197.394531 C 201.382812 197.414062 201.136719 197.429688 200.882812 197.429688 C 199.910156 197.429688 199.136719 197.234375 198.703125 196.878906 C 198.683594 196.859375 198.660156 196.839844 198.640625 196.820312 C 197.953125 196.128906 198.554688 194.121094 199.289062 193.347656 C 200.070312 192.53125 201.316406 192.105469 202.5625 192.230469 C 203.207031 192.292969 204.015625 192.519531 204.835938 192.863281 C 204.929688 192.902344 204.996094 192.929688 205.046875 192.953125 C 205.109375 193.546875 204.761719 194.503906 204.609375 194.921875 Z M 204.609375 194.921875 "/>
<path style=" stroke:none;fill-rule:nonzero;fill:rgb(48.629761%,53.729248%,54.508972%);fill-opacity:1;" d="M 184.808594 195.761719 C 185.710938 195.171875 185.683594 193.453125 185.628906 192.738281 C 185.554688 191.703125 185.175781 190.6875 184.566406 189.878906 C 183 187.796875 180.355469 187.171875 176.882812 188.074219 C 176.550781 188.164062 175.765625 188.367188 176.292969 191.945312 C 176.445312 192.960938 176.796875 193.816406 177.335938 194.476562 C 177.8125 195.0625 178.460938 195.535156 179.3125 195.917969 C 180.195312 196.316406 181.148438 196.527344 182.070312 196.527344 C 183.085938 196.527344 184.035156 196.261719 184.808594 195.761719 Z M 183.863281 194.425781 C 182.863281 195.042969 181.320312 195.03125 179.984375 194.429688 C 179.375 194.152344 178.910156 193.824219 178.601562 193.445312 C 178.25 193.011719 178.015625 192.429688 177.910156 191.707031 C 177.867188 191.398438 177.777344 190.1875 177.785156 189.539062 C 180.335938 188.976562 182.167969 189.410156 183.261719 190.859375 C 183.683594 191.421875 183.945312 192.132812 184 192.863281 C 184.050781 193.519531 183.96875 194.214844 183.863281 194.425781 Z M 183.863281 194.425781 "/>
<path style=" stroke:none;fill-rule:nonzero;fill:rgb(48.629761%,53.729248%,54.508972%);fill-opacity:1;" d="M 179.753906 212.078125 L 170.777344 215.503906 C 170.460938 215.625 170.300781 215.980469 170.421875 216.296875 C 170.515625 216.539062 170.75 216.691406 170.996094 216.691406 C 171.070312 216.691406 171.140625 216.675781 171.214844 216.648438 L 181.003906 212.910156 C 181.167969 213.003906 181.332031 213.101562 181.511719 213.195312 C 181.988281 213.4375 182.46875 213.609375 182.953125 213.730469 C 183.863281 214.839844 186.011719 216.894531 189.40625 216.894531 C 191.363281 216.894531 193.367188 216.171875 195.367188 214.765625 C 195.5 214.773438 195.625 214.789062 195.765625 214.789062 C 196.496094 214.789062 197.304688 214.710938 198.199219 214.527344 C 198.570312 214.453125 198.914062 214.332031 199.246094 214.195312 L 205.558594 217.9375 C 205.65625 217.996094 205.765625 218.023438 205.871094 218.023438 C 206.082031 218.023438 206.285156 217.917969 206.398438 217.722656 C 206.570312 217.433594 206.476562 217.058594 206.183594 216.886719 L 200.488281 213.507812 C 201.199219 212.988281 201.769531 212.332031 202.238281 211.648438 L 210.324219 213.59375 C 210.375 213.605469 210.421875 213.609375 210.46875 213.609375 C 210.746094 213.609375 210.996094 213.421875 211.066406 213.140625 C 211.144531 212.8125 210.941406 212.480469 210.613281 212.402344 L 202.894531 210.542969 C 203.328125 209.703125 203.613281 208.886719 203.792969 208.269531 L 208.789062 208.085938 C 209.128906 208.074219 209.394531 207.789062 209.378906 207.453125 C 209.367188 207.113281 209.066406 206.855469 208.746094 206.863281 L 204.050781 207.035156 C 204.042969 206.652344 203.78125 206.316406 203.390625 206.246094 C 202.945312 206.167969 202.523438 206.464844 202.445312 206.910156 C 202.445312 206.914062 202.429688 206.988281 202.40625 207.09375 L 199.421875 207.203125 C 199.082031 207.214844 198.820312 207.5 198.832031 207.835938 C 198.84375 208.167969 199.117188 208.429688 199.445312 208.429688 C 199.449219 208.429688 199.457031 208.429688 199.464844 208.429688 L 202.050781 208.332031 C 201.863281 208.878906 201.605469 209.515625 201.246094 210.148438 L 198.632812 209.519531 C 198.304688 209.441406 197.972656 209.640625 197.894531 209.972656 C 197.816406 210.300781 198.019531 210.628906 198.347656 210.710938 L 200.511719 211.230469 C 200.070312 211.769531 199.527344 212.234375 198.886719 212.558594 L 197 211.441406 C 196.710938 211.269531 196.332031 211.363281 196.160156 211.65625 C 195.988281 211.945312 196.082031 212.320312 196.375 212.496094 L 197.273438 213.027344 C 192.976562 213.679688 191.429688 211.402344 191.1875 210.980469 L 193.070312 209.304688 C 193.382812 209.027344 193.542969 208.625 193.515625 208.210938 C 193.488281 207.796875 193.277344 207.429688 192.9375 207.199219 C 192.261719 206.742188 191.402344 206.464844 190.386719 206.382812 C 189.578125 206.3125 188.878906 206.398438 188.222656 206.621094 C 187.789062 206.769531 187.464844 207.121094 187.355469 207.566406 C 187.246094 208.011719 187.367188 208.476562 187.679688 208.808594 L 189.574219 210.824219 C 188.589844 211.402344 185.777344 212.835938 183.160156 212.085938 L 183.8125 211.835938 C 184.128906 211.714844 184.289062 211.359375 184.167969 211.046875 C 184.046875 210.730469 183.691406 210.570312 183.375 210.691406 L 181.59375 211.371094 C 180.667969 210.8125 180.003906 210.203125 179.527344 209.578125 L 181.234375 209.578125 C 181.574219 209.578125 181.847656 209.304688 181.847656 208.964844 C 181.847656 208.625 181.574219 208.351562 181.234375 208.351562 L 178.824219 208.351562 C 178.613281 207.84375 178.484375 207.332031 178.402344 206.828125 L 179.785156 207.253906 C 179.84375 207.269531 179.90625 207.277344 179.964844 207.277344 C 180.226562 207.277344 180.46875 207.109375 180.550781 206.84375 C 180.648438 206.523438 180.46875 206.179688 180.144531 206.082031 L 178.257812 205.503906 L 178.09375 203.898438 C 178.046875 203.449219 177.65625 203.121094 177.199219 203.167969 C 176.75 203.210938 176.425781 203.613281 176.46875 204.0625 L 176.5625 204.984375 L 168.996094 202.671875 C 168.675781 202.570312 168.332031 202.753906 168.230469 203.078125 C 168.132812 203.402344 168.3125 203.742188 168.636719 203.84375 L 176.6875 206.304688 C 176.738281 206.871094 176.832031 207.582031 177.078125 208.351562 L 167.730469 208.351562 C 167.390625 208.351562 167.117188 208.628906 167.117188 208.964844 C 167.117188 209.304688 167.390625 209.578125 167.730469 209.578125 L 177.601562 209.578125 C 178.046875 210.417969 178.726562 211.277344 179.753906 212.078125 Z M 189.40625 215.261719 C 187.71875 215.261719 186.417969 214.613281 185.492188 213.910156 C 187.484375 213.730469 189.238281 212.898438 190.171875 212.371094 C 190.65625 212.980469 191.546875 213.808594 192.960938 214.320312 C 191.925781 214.847656 190.703125 215.261719 189.410156 215.261719 C 189.40625 215.261719 189.40625 215.261719 189.40625 215.261719 Z M 189.40625 215.261719 "/>
<g clip-path="url(#clip2)" clip-rule="nonzero">
<path style=" stroke:none;fill-rule:nonzero;fill:rgb(48.629761%,53.729248%,54.508972%);fill-opacity:1;" d="M 140.21875 187.46875 C 140.21875 161.414062 161.414062 140.21875 187.46875 140.21875 C 213.523438 140.21875 234.71875 161.414062 234.71875 187.46875 C 234.71875 213.523438 213.523438 234.71875 187.46875 234.71875 C 161.414062 234.71875 140.21875 213.523438 140.21875 187.46875 Z M 142.320312 187.46875 C 142.320312 212.363281 162.574219 232.617188 187.46875 232.617188 C 212.363281 232.617188 232.617188 212.363281 232.617188 187.46875 C 232.617188 162.574219 212.363281 142.320312 187.46875 142.320312 C 162.574219 142.320312 142.320312 162.574219 142.320312 187.46875 Z M 142.320312 187.46875 "/>
</g>
<g clip-path="url(#clip3)" clip-rule="nonzero">
<path style=" stroke:none;fill-rule:nonzero;fill:rgb(96.469116%,95.689392%,94.509888%);fill-opacity:1;" d="M 165.144531 104.570312 C 164.980469 104.632812 164.816406 104.726562 164.679688 104.84375 C 164.179688 105.269531 163.671875 105.691406 163.207031 106.15625 C 161.339844 108.015625 159.589844 109.984375 158.003906 112.085938 C 155.792969 115.023438 153.65625 118.015625 151.488281 120.984375 C 151.125 121.480469 150.769531 121.984375 150.414062 122.484375 C 150.371094 122.300781 150.425781 122.179688 150.492188 122.066406 C 151.007812 121.238281 151.511719 120.402344 152.039062 119.582031 C 152.945312 118.167969 153.804688 116.722656 154.792969 115.367188 C 156.726562 112.707031 158.738281 110.101562 160.714844 107.46875 C 161.613281 106.269531 162.480469 105.042969 163.089844 103.664062 C 163.269531 103.257812 163.367188 102.804688 163.441406 102.359375 C 163.472656 102.195312 163.375 101.953125 163.25 101.832031 C 163.191406 101.773438 162.917969 101.875 162.777344 101.960938 C 162.511719 102.128906 162.253906 102.320312 162.015625 102.527344 C 160.59375 103.765625 159.261719 105.09375 158.054688 106.546875 C 157.914062 106.714844 157.757812 106.871094 157.605469 107.03125 C 158.210938 105.960938 158.894531 104.972656 159.511719 103.945312 C 160.125 102.929688 160.738281 101.898438 160.921875 100.683594 C 160.480469 100.484375 160.246094 100.75 160.039062 100.960938 C 158.964844 102.066406 157.832031 103.125 156.863281 104.316406 C 155.375 106.144531 153.941406 108.027344 152.589844 109.960938 C 150.382812 113.125 148.253906 116.34375 146.089844 119.539062 C 146.03125 119.628906 145.9375 119.699219 145.757812 119.882812 C 145.824219 119.667969 145.832031 119.601562 145.863281 119.542969 C 147.480469 116.441406 149.300781 113.460938 151.21875 110.535156 C 153.148438 107.59375 155.152344 104.699219 156.742188 101.550781 C 156.9375 101.167969 157.179688 100.804688 157.367188 100.417969 C 157.460938 100.214844 157.484375 99.976562 157.546875 99.726562 C 156.964844 99.738281 156.9375 99.707031 156.511719 100.136719 C 155.796875 100.863281 155.097656 101.609375 154.433594 102.382812 C 153.253906 103.761719 152.035156 105.113281 150.964844 106.574219 C 149.003906 109.25 147.355469 112.128906 145.699219 115 C 145.53125 115.289062 145.324219 115.578125 145.078125 115.796875 C 143.9375 116.808594 142.90625 117.921875 141.953125 119.113281 C 141.828125 119.269531 141.679688 119.414062 141.542969 119.566406 C 142.082031 118.210938 142.675781 116.910156 143.363281 115.660156 C 144.511719 113.574219 145.71875 111.519531 146.898438 109.445312 C 147.03125 109.210938 147.140625 108.957031 147.222656 108.703125 C 147.25 108.621094 147.1875 108.464844 147.117188 108.414062 C 147.042969 108.367188 146.871094 108.367188 146.804688 108.417969 C 146.601562 108.59375 146.398438 108.78125 146.242188 109 C 144.75 111.085938 143.273438 113.179688 141.789062 115.269531 C 140.554688 117.007812 139.320312 118.75 138.078125 120.484375 C 138 120.589844 137.875 120.664062 137.691406 120.816406 C 137.734375 120.628906 137.738281 120.558594 137.765625 120.503906 C 138.691406 118.734375 139.5625 116.929688 140.558594 115.203125 C 141.921875 112.847656 143.386719 110.550781 144.792969 108.21875 C 145.257812 107.441406 145.722656 106.65625 146.109375 105.835938 C 146.316406 105.398438 146.390625 104.886719 146.453125 104.394531 C 146.472656 104.21875 146.316406 103.945312 146.160156 103.847656 C 146.046875 103.78125 145.75 103.882812 145.621094 104 C 145.160156 104.433594 144.664062 104.855469 144.3125 105.371094 C 142.679688 107.746094 141.089844 110.148438 139.488281 112.542969 C 138.441406 114.109375 137.402344 115.679688 136.355469 117.246094 C 136.226562 117.433594 136.078125 117.609375 135.9375 117.789062 C 135.894531 117.757812 135.851562 117.730469 135.808594 117.699219 C 136.101562 117.113281 136.359375 116.511719 136.6875 115.949219 C 137.949219 113.792969 139.222656 111.648438 140.507812 109.507812 C 141.324219 108.148438 142.191406 106.8125 143.007812 105.449219 C 143.226562 105.085938 143.367188 104.667969 143.488281 104.257812 C 143.550781 104.054688 143.535156 103.804688 143.476562 103.597656 C 143.355469 103.175781 143.054688 103.058594 142.691406 103.28125 C 142.441406 103.433594 142.222656 103.636719 142.007812 103.835938 C 140.640625 105.105469 139.71875 106.707031 138.761719 108.273438 C 137.589844 110.191406 136.449219 112.128906 135.28125 114.046875 C 134.921875 114.640625 134.523438 115.207031 134.144531 115.789062 C 134.109375 115.570312 134.171875 115.40625 134.253906 115.253906 C 134.964844 113.910156 135.65625 112.554688 136.394531 111.226562 C 137.632812 109.007812 138.894531 106.804688 140.148438 104.59375 C 140.496094 103.980469 140.875 103.382812 141.167969 102.746094 C 141.34375 102.367188 141.417969 101.925781 141.464844 101.5 C 141.5 101.21875 141.289062 101.089844 141.019531 101.183594 C 140.875 101.230469 140.730469 101.320312 140.621094 101.425781 C 140.285156 101.761719 139.933594 102.09375 139.640625 102.464844 C 137.734375 104.898438 136.019531 107.460938 134.519531 110.167969 C 133.890625 111.296875 133.183594 112.386719 132.503906 113.488281 C 132.414062 113.636719 132.277344 113.761719 132.164062 113.898438 C 132.789062 112.324219 133.609375 110.894531 134.492188 109.488281 C 136.070312 106.96875 137.585938 104.410156 139.121094 101.867188 C 139.285156 101.59375 139.433594 101.308594 139.550781 101.015625 C 139.71875 100.59375 139.5625 100.386719 139.113281 100.476562 C 138.8125 100.539062 138.5 100.664062 138.253906 100.847656 C 137.875 101.128906 137.527344 101.460938 137.207031 101.816406 C 135.820312 103.355469 134.761719 105.136719 133.601562 106.84375 C 133.230469 107.390625 132.855469 107.9375 132.480469 108.484375 C 132.402344 108.335938 132.417969 108.25 132.457031 108.179688 C 133.4375 106.386719 134.425781 104.601562 135.402344 102.808594 C 135.546875 102.550781 135.6875 102.289062 135.777344 102.007812 C 135.882812 101.679688 135.6875 101.480469 135.390625 101.625 C 134.75 101.929688 134.179688 102.339844 133.769531 102.933594 C 133.707031 103.023438 133.761719 103.195312 133.757812 103.417969 C 134.117188 103.199219 134.367188 103.042969 134.738281 102.8125 C 134.648438 103.054688 134.617188 103.15625 134.566406 103.25 C 133.523438 105.1875 132.472656 107.121094 131.429688 109.0625 C 131.292969 109.316406 131.183594 109.597656 131.121094 109.882812 C 131.09375 110.007812 131.171875 110.222656 131.273438 110.285156 C 131.367188 110.347656 131.601562 110.320312 131.695312 110.238281 C 131.960938 110 132.222656 109.734375 132.425781 109.441406 C 133.445312 107.9375 134.453125 106.425781 135.457031 104.917969 C 136.277344 103.6875 137.085938 102.453125 138.226562 101.484375 C 138.386719 101.351562 138.5625 101.238281 138.734375 101.117188 C 138.773438 101.152344 138.8125 101.191406 138.851562 101.230469 C 138.691406 101.542969 138.542969 101.867188 138.363281 102.167969 C 138.011719 102.753906 137.640625 103.324219 137.285156 103.90625 C 136.105469 105.84375 134.898438 107.769531 133.761719 109.730469 C 132.898438 111.222656 132.125 112.765625 131.3125 114.289062 C 131.203125 114.496094 131.113281 114.730469 131.320312 114.917969 C 131.539062 115.117188 131.804688 115.058594 132.003906 114.886719 C 132.273438 114.648438 132.554688 114.398438 132.746094 114.101562 C 133.394531 113.085938 134.03125 112.066406 134.621094 111.019531 C 135.5625 109.359375 136.464844 107.683594 137.589844 106.136719 C 138.324219 105.128906 139.015625 104.089844 139.742188 103.074219 C 140.03125 102.667969 140.386719 102.320312 140.855469 102.085938 C 140.652344 102.652344 140.417969 103.195312 140.125 103.703125 C 139.316406 105.09375 138.457031 106.460938 137.664062 107.863281 C 136.679688 109.601562 135.734375 111.363281 134.796875 113.125 C 134.261719 114.125 133.765625 115.144531 133.277344 116.167969 C 133.152344 116.429688 133.082031 116.730469 133.0625 117.019531 C 133.039062 117.347656 133.28125 117.472656 133.554688 117.300781 C 133.6875 117.21875 133.8125 117.105469 133.90625 116.980469 C 134.234375 116.550781 134.582031 116.125 134.867188 115.664062 C 135.683594 114.332031 136.464844 112.976562 137.277344 111.636719 C 138.132812 110.21875 139.054688 108.839844 139.863281 107.394531 C 140.503906 106.253906 141.292969 105.246094 142.183594 104.308594 C 142.371094 104.105469 142.617188 103.957031 142.886719 103.742188 C 143.03125 104.152344 142.964844 104.433594 142.839844 104.699219 C 142.710938 104.96875 142.578125 105.230469 142.425781 105.484375 C 141.546875 106.914062 140.667969 108.347656 139.773438 109.765625 C 137.933594 112.6875 136.21875 115.679688 134.714844 118.792969 C 134.667969 118.894531 134.589844 118.996094 134.585938 119.101562 C 134.582031 119.246094 134.589844 119.453125 134.675781 119.523438 C 134.757812 119.589844 134.964844 119.539062 135.097656 119.492188 C 135.195312 119.457031 135.28125 119.359375 135.351562 119.269531 C 135.910156 118.585938 136.507812 117.929688 137.007812 117.207031 C 137.910156 115.902344 138.757812 114.554688 139.628906 113.226562 C 140.488281 111.921875 141.332031 110.605469 142.207031 109.308594 C 143.121094 107.953125 144.054688 106.613281 145 105.285156 C 145.210938 104.984375 145.453125 104.679688 145.9375 104.421875 C 145.886719 104.753906 145.902344 104.980469 145.820312 105.164062 C 145.511719 105.84375 145.214844 106.535156 144.832031 107.171875 C 143.730469 109 142.519531 110.765625 141.476562 112.625 C 139.839844 115.554688 138.300781 118.546875 136.726562 121.511719 C 136.609375 121.730469 136.5 121.960938 136.4375 122.199219 C 136.402344 122.328125 136.429688 122.550781 136.515625 122.613281 C 136.609375 122.683594 136.847656 122.675781 136.945312 122.601562 C 137.210938 122.394531 137.464844 122.160156 137.667969 121.890625 C 138.320312 121.023438 138.96875 120.144531 139.589844 119.25 C 141.164062 116.976562 142.726562 114.691406 144.296875 112.414062 C 144.632812 111.925781 144.980469 111.445312 145.324219 110.960938 C 145.359375 110.988281 145.398438 111.011719 145.4375 111.039062 C 145.238281 111.386719 145.054688 111.746094 144.84375 112.089844 C 143.707031 113.925781 142.6875 115.820312 141.757812 117.769531 C 141.09375 119.164062 140.355469 120.519531 139.664062 121.902344 C 139.535156 122.164062 139.125 122.496094 139.429688 122.722656 C 139.792969 122.996094 140.003906 122.488281 140.1875 122.257812 C 140.863281 121.410156 141.492188 120.515625 142.148438 119.648438 C 142.480469 119.210938 142.832031 118.789062 143.171875 118.359375 C 142.941406 119.050781 142.59375 119.660156 142.296875 120.289062 C 141.605469 121.746094 140.941406 123.214844 140.273438 124.679688 C 140.167969 124.910156 139.847656 125.210938 140.152344 125.394531 C 140.523438 125.625 140.628906 125.171875 140.757812 124.941406 C 141.726562 123.246094 142.683594 121.546875 143.625 119.839844 C 144.566406 118.128906 145.460938 116.394531 146.425781 114.703125 C 147.371094 113.046875 148.371094 111.421875 149.371094 109.800781 C 149.988281 108.796875 150.570312 107.753906 151.308594 106.839844 C 152.828125 104.949219 154.4375 103.132812 156.011719 101.289062 C 156.105469 101.183594 156.230469 101.105469 156.339844 101.011719 C 155.742188 102.308594 155.105469 103.558594 154.378906 104.757812 C 153.460938 106.269531 152.464844 107.734375 151.515625 109.230469 C 150.148438 111.371094 148.757812 113.5 147.449219 115.679688 C 146.457031 117.332031 145.59375 119.0625 144.644531 120.742188 C 143.832031 122.183594 142.96875 123.601562 142.140625 125.035156 C 141.992188 125.289062 141.894531 125.570312 141.8125 125.851562 C 141.78125 125.953125 141.832031 126.148438 141.910156 126.195312 C 141.996094 126.242188 142.164062 126.191406 142.273438 126.140625 C 142.371094 126.097656 142.453125 126 142.519531 125.910156 C 142.902344 125.402344 143.308594 124.910156 143.648438 124.378906 C 144.558594 122.941406 145.40625 121.460938 146.339844 120.039062 C 147.667969 118.007812 149.042969 116.007812 150.410156 114.003906 C 151.664062 112.171875 152.921875 110.335938 154.207031 108.523438 C 154.980469 107.433594 155.777344 106.355469 156.628906 105.328125 C 157.527344 104.246094 158.5 103.230469 159.445312 102.1875 C 159.601562 102.019531 159.785156 101.878906 159.957031 101.722656 C 159.476562 103.046875 158.84375 104.246094 158.046875 105.355469 C 157.425781 106.222656 156.816406 107.097656 156.183594 107.957031 C 154.992188 109.585938 153.789062 111.210938 152.589844 112.832031 C 151.414062 114.421875 150.199219 115.976562 149.074219 117.597656 C 147.871094 119.332031 146.761719 121.132812 145.59375 122.886719 C 144.847656 124.003906 144.097656 125.109375 143.574219 126.351562 C 143.5 126.527344 143.425781 126.707031 143.363281 126.859375 C 143.632812 127.109375 143.804688 126.984375 143.953125 126.839844 C 144.242188 126.550781 144.539062 126.265625 144.800781 125.957031 C 146.160156 124.363281 147.269531 122.597656 148.410156 120.84375 C 149.78125 118.734375 151.105469 116.589844 152.550781 114.527344 C 154.03125 112.414062 155.613281 110.367188 157.1875 108.320312 C 158.570312 106.519531 160.097656 104.839844 161.773438 103.308594 C 162.097656 103.011719 162.433594 102.726562 162.972656 102.492188 C 162.875 102.816406 162.84375 103.015625 162.757812 103.191406 C 162.5 103.71875 162.277344 104.28125 161.941406 104.757812 C 160.394531 106.941406 158.816406 109.105469 157.246094 111.273438 C 155.78125 113.292969 154.25 115.269531 152.867188 117.34375 C 151.003906 120.136719 149.257812 123.007812 147.460938 125.847656 C 146.816406 126.863281 146.179688 127.878906 145.539062 128.902344 C 145.441406 129.058594 145.355469 129.265625 145.582031 129.363281 C 145.683594 129.40625 145.898438 129.335938 145.984375 129.246094 C 146.273438 128.953125 146.535156 128.640625 146.785156 128.316406 C 147.699219 127.132812 148.632812 125.964844 149.507812 124.75 C 150.304688 123.648438 151.011719 122.480469 151.789062 121.363281 C 152.75 119.988281 153.730469 118.625 154.730469 117.277344 C 156.367188 115.074219 157.96875 112.839844 159.691406 110.703125 C 160.925781 109.171875 162.324219 107.769531 163.667969 106.324219 C 163.964844 106.003906 164.347656 105.761719 164.691406 105.484375 C 164.757812 105.683594 164.730469 105.808594 164.691406 105.929688 C 164.203125 107.417969 163.367188 108.71875 162.425781 109.941406 C 160.640625 112.261719 158.789062 114.53125 156.988281 116.839844 C 155.507812 118.734375 154.03125 120.636719 152.613281 122.578125 C 151.035156 124.738281 149.527344 126.949219 147.984375 129.140625 C 147.945312 129.195312 147.875 129.253906 147.878906 129.308594 C 147.878906 129.429688 147.886719 129.570312 147.949219 129.664062 C 147.976562 129.703125 148.1875 129.6875 148.246094 129.625 C 148.488281 129.390625 148.726562 129.140625 148.929688 128.871094 C 149.859375 127.613281 150.785156 126.351562 151.703125 125.085938 C 152.261719 124.3125 152.789062 123.515625 153.351562 122.75 C 155.574219 119.730469 157.964844 116.851562 160.425781 114.03125 C 161.203125 113.140625 162.070312 112.335938 163.042969 111.660156 C 163.285156 111.496094 163.53125 111.273438 163.992188 111.300781 C 163.757812 111.730469 163.597656 112.101562 163.363281 112.425781 C 162.660156 113.398438 161.957031 114.375 161.203125 115.3125 C 159.636719 117.253906 158.019531 119.152344 156.457031 121.101562 C 155.035156 122.871094 153.65625 124.671875 152.265625 126.46875 C 151.335938 127.667969 150.410156 128.875 149.496094 130.089844 C 148.773438 131.050781 148.0625 132.019531 147.375 133.007812 C 147.214844 133.234375 146.867188 133.558594 147.214844 133.832031 C 147.511719 134.066406 147.800781 133.75 148.035156 133.546875 C 149.183594 132.550781 150.277344 131.503906 151.234375 130.308594 C 152.945312 128.164062 154.691406 126.042969 156.429688 123.921875 C 156.769531 123.511719 157.148438 123.136719 157.511719 122.742188 C 157.558594 122.859375 157.546875 122.921875 157.511719 122.96875 C 156.269531 124.617188 155.003906 126.25 153.789062 127.921875 C 152.292969 129.976562 150.835938 132.058594 149.367188 134.132812 C 149.210938 134.359375 148.890625 134.644531 149.183594 134.902344 C 149.464844 135.152344 149.710938 134.792969 149.933594 134.632812 C 150.25 134.402344 150.535156 134.136719 150.835938 133.886719 C 150.308594 134.875 149.734375 135.796875 149.183594 136.734375 C 149.078125 136.910156 148.980469 137.199219 149.054688 137.347656 C 149.1875 137.621094 149.449219 137.386719 149.65625 137.351562 C 149.6875 137.347656 149.722656 137.390625 149.800781 137.433594 C 149.605469 137.710938 149.414062 137.988281 149.21875 138.265625 C 149.066406 138.480469 148.945312 138.691406 149.183594 138.929688 C 149.394531 139.140625 149.28125 139.355469 149.15625 139.546875 C 149.085938 139.660156 148.953125 139.738281 148.894531 139.855469 C 148.851562 139.9375 148.855469 140.132812 148.890625 140.144531 C 148.996094 140.1875 149.191406 140.207031 149.230469 140.152344 C 149.414062 139.898438 149.558594 139.613281 149.714844 139.34375 C 149.964844 138.914062 150.1875 138.46875 150.472656 138.066406 C 150.703125 137.734375 151 137.445312 151.28125 137.152344 C 151.5625 136.859375 151.800781 136.566406 151.550781 136.179688 C 151.785156 135.792969 152.308594 135.644531 152.210938 135.011719 C 152.007812 135.097656 151.839844 135.136719 151.707031 135.226562 C 151.277344 135.523438 150.863281 135.839844 150.433594 136.136719 C 150.324219 136.210938 150.191406 136.25 149.921875 136.371094 C 150.125 136.003906 150.21875 135.769531 150.367188 135.578125 C 151.199219 134.5 152.027344 133.417969 152.898438 132.375 C 153.332031 131.855469 153.859375 131.414062 154.332031 130.925781 C 154.523438 130.726562 154.800781 130.539062 154.582031 130.09375 C 154.355469 130.234375 154.140625 130.332031 153.96875 130.484375 C 153.113281 131.234375 152.277344 132 151.425781 132.75 C 151.238281 132.917969 151.015625 133.046875 150.8125 133.195312 C 150.777344 133.160156 150.746094 133.125 150.714844 133.085938 C 150.839844 132.878906 150.953125 132.660156 151.09375 132.464844 C 151.898438 131.3125 152.679688 130.140625 153.527344 129.019531 C 155.320312 126.648438 157.148438 124.304688 158.957031 121.945312 C 159.21875 121.601562 159.464844 121.246094 159.6875 120.878906 C 159.742188 120.789062 159.738281 120.585938 159.671875 120.515625 C 159.605469 120.449219 159.410156 120.449219 159.308594 120.496094 C 159.152344 120.570312 159.019531 120.707031 158.882812 120.828125 C 156.992188 122.472656 155.390625 124.386719 153.820312 126.328125 C 152.519531 127.933594 151.210938 129.53125 149.886719 131.113281 C 149.449219 131.636719 148.945312 132.09375 148.355469 132.457031 C 148.464844 132.21875 148.601562 132.011719 148.753906 131.816406 C 149.847656 130.394531 150.9375 128.972656 152.035156 127.554688 C 153.972656 125.066406 155.894531 122.566406 157.855469 120.09375 C 159.253906 118.335938 160.71875 116.632812 162.125 114.878906 C 162.835938 113.996094 163.507812 113.078125 164.148438 112.144531 C 164.367188 111.820312 164.488281 111.40625 164.5625 111.011719 C 164.628906 110.675781 164.390625 110.507812 164.054688 110.59375 C 163.882812 110.636719 163.71875 110.722656 163.554688 110.800781 C 162.746094 111.183594 162.089844 111.78125 161.433594 112.375 C 161.277344 112.515625 161.117188 112.648438 160.960938 112.785156 C 161.675781 111.710938 162.417969 110.683594 163.195312 109.679688 C 164.175781 108.410156 164.898438 107.003906 165.425781 105.496094 C 165.492188 105.304688 165.554688 105.101562 165.570312 104.902344 C 165.59375 104.601562 165.421875 104.46875 165.144531 104.570312 "/>
<path style=" stroke:none;fill-rule:nonzero;fill:rgb(14.509583%,20.388794%,22.349548%);fill-opacity:1;" d="M 157.546875 99.726562 C 157.484375 99.976562 157.460938 100.214844 157.367188 100.417969 C 157.179688 100.804688 156.9375 101.167969 156.742188 101.550781 C 155.152344 104.699219 153.148438 107.59375 151.21875 110.535156 C 149.300781 113.460938 147.480469 116.441406 145.863281 119.542969 C 145.832031 119.601562 145.824219 119.667969 145.757812 119.882812 C 145.9375 119.699219 146.03125 119.628906 146.089844 119.539062 C 148.253906 116.34375 150.382812 113.125 152.589844 109.960938 C 153.941406 108.027344 155.375 106.144531 156.863281 104.316406 C 157.832031 103.125 158.964844 102.066406 160.039062 100.960938 C 160.246094 100.75 160.480469 100.484375 160.921875 100.683594 C 160.738281 101.898438 160.125 102.929688 159.511719 103.945312 C 158.894531 104.972656 158.210938 105.960938 157.605469 107.03125 C 157.757812 106.871094 157.914062 106.714844 158.054688 106.546875 C 159.261719 105.09375 160.59375 103.765625 162.015625 102.527344 C 162.253906 102.320312 162.511719 102.128906 162.777344 101.960938 C 162.917969 101.875 163.191406 101.773438 163.25 101.832031 C 163.375 101.953125 163.472656 102.195312 163.441406 102.359375 C 163.367188 102.804688 163.269531 103.257812 163.089844 103.664062 C 162.480469 105.042969 161.613281 106.269531 160.714844 107.46875 C 158.738281 110.101562 156.726562 112.707031 154.792969 115.367188 C 153.804688 116.722656 152.945312 118.167969 152.039062 119.582031 C 151.511719 120.402344 151.007812 121.238281 150.492188 122.066406 C 150.425781 122.179688 150.371094 122.300781 150.414062 122.484375 C 150.769531 121.984375 151.125 121.480469 151.488281 120.984375 C 153.65625 118.015625 155.792969 115.023438 158.003906 112.085938 C 159.589844 109.984375 161.339844 108.015625 163.207031 106.15625 C 163.671875 105.691406 164.179688 105.269531 164.679688 104.84375 C 164.816406 104.726562 164.980469 104.632812 165.144531 104.570312 C 165.421875 104.46875 165.59375 104.601562 165.570312 104.902344 C 165.554688 105.101562 165.492188 105.304688 165.425781 105.496094 C 164.898438 107.003906 164.175781 108.410156 163.195312 109.679688 C 162.417969 110.683594 161.675781 111.710938 160.960938 112.785156 C 161.117188 112.648438 161.277344 112.515625 161.433594 112.375 C 162.089844 111.78125 162.746094 111.183594 163.554688 110.800781 C 163.71875 110.722656 163.882812 110.636719 164.054688 110.59375 C 164.390625 110.507812 164.628906 110.675781 164.5625 111.011719 C 164.488281 111.40625 164.367188 111.820312 164.148438 112.144531 C 163.507812 113.078125 162.835938 113.996094 162.125 114.878906 C 160.71875 116.632812 159.253906 118.335938 157.855469 120.09375 C 155.894531 122.566406 153.972656 125.066406 152.035156 127.554688 C 150.9375 128.972656 149.847656 130.394531 148.753906 131.816406 C 148.601562 132.011719 148.464844 132.21875 148.355469 132.457031 C 148.945312 132.09375 149.449219 131.636719 149.886719 131.113281 C 151.210938 129.53125 152.519531 127.933594 153.820312 126.328125 C 155.390625 124.386719 156.992188 122.472656 158.882812 120.828125 C 159.019531 120.707031 159.152344 120.570312 159.308594 120.496094 C 159.410156 120.449219 159.605469 120.449219 159.671875 120.519531 C 159.738281 120.585938 159.742188 120.789062 159.6875 120.878906 C 159.464844 121.246094 159.21875 121.601562 158.957031 121.945312 C 157.148438 124.304688 155.320312 126.648438 153.527344 129.019531 C 152.679688 130.140625 151.898438 131.3125 151.09375 132.464844 C 150.953125 132.660156 150.839844 132.878906 150.714844 133.085938 C 150.746094 133.125 150.777344 133.160156 150.8125 133.195312 C 151.015625 133.046875 151.238281 132.917969 151.425781 132.75 C 152.277344 132 153.113281 131.234375 153.96875 130.484375 C 154.140625 130.332031 154.355469 130.234375 154.582031 130.09375 C 154.800781 130.539062 154.523438 130.726562 154.332031 130.925781 C 153.859375 131.414062 153.332031 131.855469 152.898438 132.375 C 152.027344 133.417969 151.199219 134.5 150.367188 135.578125 C 150.21875 135.769531 150.125 136.003906 149.921875 136.371094 C 150.191406 136.25 150.324219 136.210938 150.433594 136.136719 C 150.863281 135.839844 151.277344 135.523438 151.707031 135.226562 C 151.839844 135.136719 152.007812 135.097656 152.210938 135.011719 C 152.308594 135.644531 151.785156 135.792969 151.550781 136.179688 C 151.800781 136.566406 151.5625 136.859375 151.28125 137.152344 C 151 137.445312 150.703125 137.734375 150.472656 138.066406 C 150.1875 138.46875 149.964844 138.914062 149.714844 139.34375 C 149.558594 139.613281 149.414062 139.898438 149.230469 140.152344 C 149.191406 140.207031 148.996094 140.1875 148.890625 140.144531 C 148.855469 140.132812 148.851562 139.9375 148.894531 139.855469 C 148.953125 139.738281 149.085938 139.660156 149.15625 139.546875 C 149.28125 139.355469 149.394531 139.140625 149.183594 138.929688 C 148.945312 138.691406 149.066406 138.480469 149.21875 138.265625 C 149.414062 137.988281 149.605469 137.710938 149.800781 137.433594 C 149.722656 137.390625 149.6875 137.347656 149.65625 137.351562 C 149.449219 137.386719 149.1875 137.621094 149.054688 137.347656 C 148.980469 137.199219 149.078125 136.910156 149.183594 136.734375 C 149.734375 135.796875 150.308594 134.875 150.835938 133.886719 C 150.535156 134.136719 150.25 134.402344 149.933594 134.632812 C 149.710938 134.792969 149.464844 135.152344 149.183594 134.902344 C 148.890625 134.644531 149.210938 134.359375 149.367188 134.132812 C 150.835938 132.058594 152.292969 129.976562 153.789062 127.921875 C 155.003906 126.25 156.269531 124.617188 157.511719 122.96875 C 157.546875 122.921875 157.558594 122.859375 157.511719 122.742188 C 157.148438 123.136719 156.769531 123.511719 156.429688 123.921875 C 154.691406 126.042969 152.945312 128.164062 151.234375 130.308594 C 150.277344 131.503906 149.183594 132.550781 148.035156 133.546875 C 147.800781 133.75 147.511719 134.066406 147.214844 133.832031 C 146.867188 133.558594 147.214844 133.234375 147.375 133.007812 C 148.0625 132.019531 148.773438 131.050781 149.496094 130.089844 C 150.410156 128.875 151.335938 127.667969 152.265625 126.46875 C 153.65625 124.671875 155.035156 122.871094 156.457031 121.101562 C 158.019531 119.152344 159.636719 117.253906 161.203125 115.3125 C 161.957031 114.375 162.660156 113.398438 163.363281 112.425781 C 163.597656 112.101562 163.757812 111.730469 163.992188 111.300781 C 163.53125 111.273438 163.285156 111.496094 163.042969 111.660156 C 162.070312 112.335938 161.203125 113.140625 160.425781 114.03125 C 157.964844 116.851562 155.574219 119.730469 153.351562 122.75 C 152.789062 123.515625 152.261719 124.3125 151.703125 125.085938 C 150.785156 126.351562 149.859375 127.613281 148.929688 128.871094 C 148.726562 129.140625 148.488281 129.390625 148.246094 129.625 C 148.1875 129.6875 147.976562 129.703125 147.949219 129.664062 C 147.886719 129.570312 147.878906 129.429688 147.878906 129.308594 C 147.875 129.253906 147.945312 129.195312 147.984375 129.140625 C 149.527344 126.949219 151.035156 124.738281 152.613281 122.578125 C 154.03125 120.636719 155.507812 118.734375 156.988281 116.839844 C 158.789062 114.53125 160.640625 112.261719 162.425781 109.941406 C 163.367188 108.71875 164.203125 107.417969 164.691406 105.929688 C 164.730469 105.808594 164.757812 105.683594 164.691406 105.484375 C 164.347656 105.761719 163.964844 106.003906 163.667969 106.324219 C 162.324219 107.769531 160.925781 109.171875 159.691406 110.703125 C 157.96875 112.839844 156.367188 115.074219 154.730469 117.277344 C 153.730469 118.625 152.75 119.988281 151.789062 121.363281 C 151.011719 122.480469 150.304688 123.648438 149.507812 124.75 C 148.632812 125.964844 147.699219 127.132812 146.785156 128.316406 C 146.535156 128.640625 146.273438 128.953125 145.984375 129.246094 C 145.898438 129.335938 145.683594 129.40625 145.582031 129.363281 C 145.355469 129.265625 145.441406 129.058594 145.539062 128.902344 C 146.179688 127.878906 146.816406 126.863281 147.460938 125.847656 C 149.257812 123.007812 151.003906 120.136719 152.867188 117.34375 C 154.25 115.269531 155.78125 113.292969 157.246094 111.273438 C 158.816406 109.105469 160.394531 106.941406 161.941406 104.757812 C 162.277344 104.28125 162.5 103.71875 162.757812 103.191406 C 162.84375 103.015625 162.875 102.816406 162.972656 102.492188 C 162.433594 102.726562 162.097656 103.011719 161.773438 103.308594 C 160.097656 104.839844 158.570312 106.519531 157.1875 108.320312 C 155.613281 110.367188 154.03125 112.414062 152.550781 114.527344 C 151.105469 116.589844 149.78125 118.734375 148.410156 120.84375 C 147.269531 122.597656 146.160156 124.363281 144.800781 125.957031 C 144.539062 126.265625 144.242188 126.550781 143.953125 126.839844 C 143.804688 126.984375 143.632812 127.109375 143.363281 126.859375 C 143.425781 126.707031 143.5 126.527344 143.574219 126.351562 C 144.097656 125.109375 144.847656 124.003906 145.59375 122.886719 C 146.761719 121.132812 147.871094 119.332031 149.074219 117.597656 C 150.199219 115.976562 151.414062 114.421875 152.589844 112.832031 C 153.789062 111.210938 154.992188 109.585938 156.183594 107.957031 C 156.816406 107.097656 157.425781 106.222656 158.046875 105.355469 C 158.84375 104.246094 159.476562 103.046875 159.957031 101.722656 C 159.785156 101.878906 159.601562 102.019531 159.445312 102.1875 C 158.5 103.230469 157.527344 104.246094 156.628906 105.328125 C 155.777344 106.355469 154.980469 107.433594 154.207031 108.523438 C 152.921875 110.335938 151.664062 112.171875 150.410156 114.003906 C 149.042969 116.007812 147.667969 118.007812 146.339844 120.039062 C 145.40625 121.460938 144.558594 122.941406 143.648438 124.378906 C 143.308594 124.910156 142.902344 125.402344 142.519531 125.910156 C 142.453125 126 142.371094 126.097656 142.273438 126.140625 C 142.164062 126.191406 141.996094 126.242188 141.910156 126.195312 C 141.832031 126.148438 141.78125 125.953125 141.8125 125.851562 C 141.894531 125.570312 141.992188 125.289062 142.140625 125.035156 C 142.96875 123.601562 143.832031 122.183594 144.644531 120.742188 C 145.59375 119.0625 146.457031 117.332031 147.449219 115.679688 C 148.757812 113.5 150.148438 111.371094 151.515625 109.230469 C 152.464844 107.734375 153.460938 106.269531 154.378906 104.757812 C 155.105469 103.558594 155.742188 102.308594 156.339844 101.011719 C 156.230469 101.105469 156.105469 101.183594 156.011719 101.289062 C 154.4375 103.132812 152.828125 104.949219 151.308594 106.839844 C 150.570312 107.753906 149.988281 108.796875 149.371094 109.800781 C 148.371094 111.421875 147.371094 113.046875 146.425781 114.703125 C 145.460938 116.394531 144.566406 118.128906 143.625 119.839844 C 142.683594 121.546875 141.726562 123.246094 140.757812 124.941406 C 140.628906 125.171875 140.523438 125.625 140.152344 125.394531 C 139.847656 125.210938 140.167969 124.910156 140.273438 124.679688 C 140.941406 123.214844 141.605469 121.746094 142.296875 120.289062 C 142.59375 119.660156 142.941406 119.050781 143.171875 118.359375 C 142.832031 118.789062 142.480469 119.210938 142.148438 119.648438 C 141.492188 120.515625 140.863281 121.410156 140.1875 122.257812 C 140.003906 122.488281 139.792969 122.996094 139.429688 122.722656 C 139.125 122.496094 139.535156 122.164062 139.664062 121.902344 C 140.355469 120.519531 141.09375 119.164062 141.757812 117.769531 C 142.6875 115.820312 143.707031 113.925781 144.84375 112.089844 C 145.054688 111.746094 145.238281 111.386719 145.4375 111.039062 C 145.398438 111.011719 145.359375 110.988281 145.324219 110.960938 C 144.980469 111.445312 144.632812 111.925781 144.296875 112.414062 C 142.726562 114.691406 141.164062 116.976562 139.589844 119.25 C 138.96875 120.144531 138.320312 121.023438 137.667969 121.890625 C 137.464844 122.160156 137.210938 122.394531 136.945312 122.601562 C 136.847656 122.675781 136.609375 122.683594 136.515625 122.613281 C 136.429688 122.550781 136.402344 122.328125 136.4375 122.199219 C 136.5 121.960938 136.609375 121.730469 136.726562 121.511719 C 138.300781 118.546875 139.839844 115.554688 141.476562 112.625 C 142.519531 110.765625 143.730469 109 144.832031 107.171875 C 145.214844 106.535156 145.511719 105.84375 145.820312 105.164062 C 145.902344 104.980469 145.886719 104.753906 145.9375 104.421875 C 145.453125 104.679688 145.210938 104.984375 145 105.28125 C 144.054688 106.613281 143.121094 107.953125 142.207031 109.308594 C 141.332031 110.605469 140.488281 111.921875 139.628906 113.226562 C 138.757812 114.554688 137.910156 115.902344 137.007812 117.207031 C 136.507812 117.929688 135.910156 118.585938 135.351562 119.269531 C 135.28125 119.359375 135.195312 119.457031 135.097656 119.492188 C 134.964844 119.539062 134.757812 119.589844 134.675781 119.523438 C 134.589844 119.453125 134.582031 119.246094 134.585938 119.101562 C 134.589844 118.996094 134.667969 118.894531 134.714844 118.792969 C 136.21875 115.679688 137.933594 112.6875 139.773438 109.765625 C 140.667969 108.347656 141.546875 106.914062 142.425781 105.484375 C 142.578125 105.230469 142.710938 104.96875 142.839844 104.699219 C 142.964844 104.433594 143.03125 104.152344 142.886719 103.742188 C 142.617188 103.957031 142.371094 104.105469 142.183594 104.308594 C 141.292969 105.246094 140.503906 106.253906 139.863281 107.394531 C 139.054688 108.839844 138.132812 110.21875 137.277344 111.636719 C 136.464844 112.976562 135.683594 114.332031 134.867188 115.664062 C 134.582031 116.125 134.234375 116.550781 133.90625 116.980469 C 133.8125 117.105469 133.6875 117.21875 133.554688 117.300781 C 133.28125 117.472656 133.039062 117.347656 133.0625 117.019531 C 133.082031 116.730469 133.152344 116.429688 133.277344 116.167969 C 133.765625 115.144531 134.261719 114.125 134.796875 113.125 C 135.734375 111.363281 136.679688 109.601562 137.664062 107.863281 C 138.457031 106.460938 139.316406 105.09375 140.125 103.703125 C 140.417969 103.195312 140.652344 102.652344 140.855469 102.085938 C 140.386719 102.320312 140.03125 102.667969 139.742188 103.074219 C 139.015625 104.089844 138.324219 105.128906 137.589844 106.136719 C 136.464844 107.683594 135.5625 109.359375 134.621094 111.019531 C 134.03125 112.066406 133.394531 113.085938 132.746094 114.101562 C 132.554688 114.398438 132.273438 114.648438 132.003906 114.886719 C 131.804688 115.058594 131.539062 115.117188 131.320312 114.917969 C 131.113281 114.730469 131.203125 114.496094 131.3125 114.289062 C 132.125 112.765625 132.898438 111.222656 133.761719 109.730469 C 134.898438 107.769531 136.105469 105.84375 137.285156 103.90625 C 137.640625 103.324219 138.011719 102.753906 138.363281 102.167969 C 138.542969 101.867188 138.691406 101.542969 138.851562 101.230469 C 138.8125 101.191406 138.773438 101.152344 138.734375 101.117188 C 138.5625 101.238281 138.386719 101.351562 138.226562 101.484375 C 137.085938 102.453125 136.277344 103.6875 135.457031 104.917969 C 134.453125 106.425781 133.445312 107.9375 132.425781 109.441406 C 132.222656 109.734375 131.960938 110 131.695312 110.238281 C 131.601562 110.320312 131.367188 110.347656 131.273438 110.285156 C 131.171875 110.222656 131.09375 110.007812 131.121094 109.882812 C 131.183594 109.597656 131.292969 109.316406 131.429688 109.0625 C 132.472656 107.121094 133.523438 105.1875 134.566406 103.25 C 134.617188 103.15625 134.648438 103.054688 134.738281 102.8125 C 134.367188 103.042969 134.117188 103.199219 133.757812 103.417969 C 133.761719 103.195312 133.707031 103.023438 133.769531 102.933594 C 134.179688 102.339844 134.75 101.929688 135.390625 101.625 C 135.6875 101.480469 135.882812 101.679688 135.777344 102.007812 C 135.6875 102.289062 135.546875 102.550781 135.402344 102.808594 C 134.425781 104.601562 133.4375 106.386719 132.457031 108.179688 C 132.417969 108.25 132.402344 108.335938 132.480469 108.484375 C 132.855469 107.9375 133.230469 107.390625 133.601562 106.84375 C 134.761719 105.136719 135.820312 103.355469 137.207031 101.816406 C 137.527344 101.460938 137.875 101.128906 138.253906 100.847656 C 138.5 100.664062 138.8125 100.539062 139.113281 100.476562 C 139.5625 100.386719 139.71875 100.59375 139.550781 101.015625 C 139.433594 101.308594 139.285156 101.59375 139.121094 101.867188 C 137.585938 104.410156 136.070312 106.96875 134.492188 109.488281 C 133.609375 110.894531 132.789062 112.324219 132.164062 113.898438 C 132.277344 113.761719 132.414062 113.636719 132.503906 113.488281 C 133.183594 112.386719 133.890625 111.296875 134.519531 110.167969 C 136.019531 107.460938 137.734375 104.898438 139.640625 102.464844 C 139.933594 102.09375 140.285156 101.761719 140.621094 101.425781 C 140.730469 101.320312 140.875 101.230469 141.019531 101.183594 C 141.289062 101.089844 141.5 101.21875 141.464844 101.5 C 141.417969 101.925781 141.34375 102.367188 141.167969 102.746094 C 140.875 103.382812 140.496094 103.980469 140.148438 104.59375 C 138.894531 106.804688 137.632812 109.007812 136.394531 111.226562 C 135.65625 112.554688 134.964844 113.910156 134.253906 115.253906 C 134.171875 115.40625 134.109375 115.570312 134.144531 115.789062 C 134.523438 115.207031 134.921875 114.640625 135.28125 114.046875 C 136.449219 112.128906 137.589844 110.191406 138.761719 108.273438 C 139.71875 106.707031 140.640625 105.105469 142.007812 103.835938 C 142.222656 103.636719 142.441406 103.433594 142.691406 103.28125 C 143.054688 103.058594 143.355469 103.175781 143.476562 103.597656 C 143.535156 103.804688 143.550781 104.054688 143.488281 104.257812 C 143.367188 104.667969 143.226562 105.085938 143.007812 105.449219 C 142.191406 106.8125 141.324219 108.148438 140.507812 109.507812 C 139.222656 111.648438 137.949219 113.792969 136.6875 115.949219 C 136.359375 116.511719 136.101562 117.113281 135.808594 117.699219 C 135.851562 117.730469 135.894531 117.757812 135.9375 117.789062 C 136.078125 117.609375 136.226562 117.433594 136.355469 117.246094 C 137.402344 115.679688 138.441406 114.109375 139.488281 112.542969 C 141.089844 110.148438 142.679688 107.746094 144.3125 105.371094 C 144.664062 104.855469 145.160156 104.433594 145.621094 104 C 145.75 103.882812 146.046875 103.78125 146.160156 103.847656 C 146.316406 103.945312 146.472656 104.21875 146.453125 104.394531 C 146.390625 104.886719 146.316406 105.398438 146.109375 105.835938 C 145.722656 106.65625 145.257812 107.441406 144.792969 108.21875 C 143.386719 110.550781 141.921875 112.847656 140.558594 115.203125 C 139.5625 116.929688 138.691406 118.734375 137.765625 120.503906 C 137.738281 120.558594 137.734375 120.628906 137.691406 120.816406 C 137.875 120.664062 138 120.589844 138.078125 120.484375 C 139.320312 118.75 140.554688 117.007812 141.789062 115.269531 C 143.273438 113.179688 144.75 111.085938 146.242188 109 C 146.398438 108.78125 146.601562 108.59375 146.804688 108.417969 C 146.871094 108.367188 147.042969 108.367188 147.117188 108.414062 C 147.1875 108.464844 147.25 108.621094 147.222656 108.703125 C 147.140625 108.957031 147.03125 109.210938 146.898438 109.445312 C 145.71875 111.519531 144.511719 113.574219 143.363281 115.660156 C 142.675781 116.910156 142.082031 118.210938 141.542969 119.566406 C 141.679688 119.414062 141.828125 119.269531 141.953125 119.113281 C 142.90625 117.921875 143.9375 116.808594 145.078125 115.796875 C 145.324219 115.578125 145.53125 115.289062 145.699219 115 C 147.355469 112.128906 149.003906 109.25 150.964844 106.574219 C 152.035156 105.113281 153.253906 103.761719 154.433594 102.382812 C 155.097656 101.609375 155.796875 100.863281 156.511719 100.136719 C 156.9375 99.707031 156.964844 99.738281 157.546875 99.726562 "/>
</g>
</g>
</svg>
