<?xml version="1.0" encoding="UTF-8"?>
<svg xmlns="http://www.w3.org/2000/svg" xmlns:xlink="http://www.w3.org/1999/xlink" width="375pt" height="374.999991pt" viewBox="0 0 375 374.999991" version="1.2">
<defs>
<clipPath id="clip1">
  <path d="M 116.066406 81.117188 L 258.566406 81.117188 L 258.566406 313.617188 L 116.066406 313.617188 Z M 116.066406 81.117188 "/>
</clipPath>
<clipPath id="clip2">
  <path d="M 151.4375 151.4375 L 223.4375 151.4375 L 223.4375 223.4375 L 151.4375 223.4375 Z M 151.4375 151.4375 "/>
</clipPath>
<clipPath id="clip3">
  <path d="M 134.144531 110.925781 L 168.644531 110.925781 L 168.644531 151.425781 L 134.144531 151.425781 Z M 134.144531 110.925781 "/>
</clipPath>
</defs>
<g id="surface1">
<rect x="0" y="0" width="375" height="374.999991" style="fill:rgb(100%,100%,100%);fill-opacity:1;stroke:none;"/>
<rect x="0" y="0" width="375" height="374.999991" style="fill:rgb(100%,100%,100%);fill-opacity:1;stroke:none;"/>
<rect x="0" y="0" width="375" height="374.999991" style="fill:rgb(96.469116%,95.689392%,94.509888%);fill-opacity:1;stroke:none;"/>
<g clip-path="url(#clip1)" clip-rule="nonzero">
<path style=" stroke:none;fill-rule:nonzero;fill:rgb(48.629761%,53.729248%,54.508972%);fill-opacity:1;" d="M 178.410156 286.738281 C 178.410156 281.8125 182.402344 277.800781 187.316406 277.800781 C 192.230469 277.800781 196.222656 281.8125 196.222656 286.738281 C 196.222656 291.664062 192.230469 295.675781 187.316406 295.675781 C 182.402344 295.675781 178.410156 291.664062 178.410156 286.738281 Z M 258.566406 103.527344 L 258.566406 291.207031 C 258.566406 303.527344 248.582031 313.550781 236.300781 313.550781 L 138.332031 313.550781 C 126.050781 313.550781 116.066406 303.527344 116.066406 291.207031 L 116.066406 103.527344 C 116.066406 91.210938 126.050781 81.1875 138.332031 81.1875 L 236.300781 81.1875 C 248.582031 81.1875 258.566406 91.210938 258.566406 103.527344 Z M 172.253906 90.121094 L 173.019531 91.648438 C 175.296875 96.21875 179.871094 99.058594 184.96875 99.058594 L 189.667969 99.058594 C 194.761719 99.058594 199.335938 96.21875 201.617188 91.648438 L 202.382812 90.121094 Z M 249.660156 268.863281 L 124.972656 268.863281 L 124.972656 291.207031 C 124.972656 298.597656 130.964844 304.613281 138.332031 304.613281 L 236.300781 304.613281 C 243.667969 304.613281 249.660156 298.597656 249.660156 291.207031 Z M 249.660156 103.527344 C 249.660156 96.136719 243.667969 90.121094 236.300781 90.121094 L 212.335938 90.121094 L 209.582031 95.648438 C 205.78125 103.265625 198.15625 107.996094 189.667969 107.996094 L 184.96875 107.996094 C 176.480469 107.996094 168.851562 103.265625 165.050781 95.648438 L 162.300781 90.121094 L 138.332031 90.121094 C 130.964844 90.121094 124.972656 96.136719 124.972656 103.527344 L 124.972656 259.925781 L 249.660156 259.925781 Z M 249.660156 103.527344 "/>
</g>
<path style=" stroke:none;fill-rule:nonzero;fill:rgb(48.629761%,53.729248%,54.508972%);fill-opacity:1;" d="M 160.742188 209.109375 C 161.09375 209.535156 161.445312 209.949219 161.804688 210.359375 C 161.988281 208.871094 162.390625 207.238281 162.8125 206.277344 C 163.085938 205.660156 163.589844 204.863281 164.117188 204.023438 C 164.804688 202.933594 165.511719 201.8125 165.949219 200.765625 C 166.390625 199.710938 166.359375 197.023438 166.332031 193.917969 C 166.300781 191.109375 166.269531 188.207031 166.597656 186.582031 C 167.023438 184.460938 168.949219 179.125 170.308594 175.476562 C 170.484375 176.40625 170.765625 177.421875 170.894531 177.847656 C 170.972656 178.117188 171.222656 178.292969 171.484375 178.292969 C 171.550781 178.292969 171.605469 178.285156 171.660156 178.269531 C 171.988281 178.175781 172.179688 177.828125 172.085938 177.5 C 171.703125 176.164062 171.34375 174.492188 171.414062 174.125 C 171.566406 173.339844 171.941406 170.085938 171.957031 169.949219 C 171.980469 168.652344 172.085938 165.261719 172.316406 164.382812 C 172.605469 163.308594 173.925781 161.277344 174.78125 160.789062 C 175.292969 160.492188 176.542969 160.871094 177.261719 161.230469 C 177.511719 161.429688 178.78125 162.503906 180.566406 164.621094 C 182.542969 166.964844 185.710938 174.847656 185.742188 174.925781 C 185.871094 175.238281 186.230469 175.398438 186.550781 175.269531 C 186.871094 175.140625 187.023438 174.78125 186.894531 174.460938 C 186.804688 174.238281 185.382812 170.703125 183.820312 167.628906 C 185.398438 167.644531 189.582031 167.734375 192.628906 168.269531 C 196.351562 168.925781 199.703125 171.070312 199.734375 171.085938 C 199.839844 171.148438 199.957031 171.191406 200.070312 171.191406 C 200.117188 171.191406 200.167969 171.179688 200.214844 171.171875 L 202.789062 170.582031 C 201.589844 171.4375 200.398438 172.363281 199.804688 173.011719 C 199.230469 173.636719 197.902344 175.683594 197.757812 175.917969 C 197.566406 176.207031 197.652344 176.597656 197.941406 176.78125 C 198.230469 176.964844 198.613281 176.886719 198.796875 176.597656 C 199.191406 175.988281 200.300781 174.316406 200.726562 173.84375 C 201.71875 172.765625 204.765625 170.699219 206.15625 169.789062 C 206.222656 169.757812 206.277344 169.726562 206.332031 169.675781 C 206.652344 169.46875 206.855469 169.332031 206.863281 169.332031 C 209.253906 168.117188 212.308594 167.171875 212.804688 167.804688 C 213.679688 168.941406 212.773438 170.414062 212.765625 170.421875 L 208.871094 176.566406 C 208.597656 176.996094 208.453125 177.492188 208.453125 178.007812 L 208.453125 178.878906 C 208.453125 179.269531 208.382812 179.644531 208.238281 180.015625 L 207.308594 182.375 C 207.125 182.835938 207.101562 183.359375 207.238281 183.847656 C 207.660156 185.308594 208.613281 189.132812 208.429688 192.964844 C 208.222656 197.574219 203.996094 201.199219 203.949219 201.230469 C 203.820312 201.34375 203.742188 201.5 203.734375 201.667969 C 203.71875 201.835938 203.78125 201.996094 203.894531 202.125 C 204.542969 202.847656 206.292969 204.988281 206.574219 206.238281 C 206.652344 206.574219 206.71875 206.925781 206.789062 207.292969 C 207.101562 208.871094 207.421875 210.5 208.367188 211.375 C 208.757812 211.734375 209.453125 212.421875 210.125 213.09375 C 210.15625 213.125 210.191406 213.15625 210.222656 213.191406 C 210.535156 212.910156 210.839844 212.636719 211.132812 212.339844 C 211.085938 212.292969 211.039062 212.246094 210.996094 212.207031 C 210.285156 211.5 209.613281 210.835938 209.207031 210.460938 C 208.566406 209.871094 208.269531 208.375 208.015625 207.054688 C 207.941406 206.675781 207.871094 206.308594 207.789062 205.964844 C 207.46875 204.558594 205.964844 202.644531 205.222656 201.757812 C 206.414062 200.605469 209.476562 197.246094 209.679688 193.023438 C 209.863281 189.003906 208.871094 185.03125 208.4375 183.5 C 208.375 183.277344 208.382812 183.039062 208.46875 182.820312 L 209.398438 180.46875 C 209.597656 179.957031 209.703125 179.421875 209.703125 178.878906 L 209.703125 178.007812 C 209.703125 177.726562 209.773438 177.460938 209.925781 177.230469 L 213.820312 171.085938 C 213.878906 170.996094 215.183594 168.863281 213.789062 167.054688 C 212.429688 165.285156 207.667969 167.527344 206.246094 168.253906 C 206.199219 168.285156 205.957031 168.4375 205.613281 168.660156 L 200.183594 169.902344 C 199.34375 169.390625 196.292969 167.652344 192.847656 167.046875 C 188.933594 166.359375 183.414062 166.382812 183.183594 166.382812 C 183.175781 166.382812 183.175781 166.382812 183.164062 166.382812 C 182.597656 165.332031 182.03125 164.421875 181.519531 163.820312 C 179.4375 161.351562 178.046875 160.261719 177.980469 160.214844 C 177.957031 160.191406 177.925781 160.164062 177.894531 160.148438 C 177.644531 160.03125 175.488281 158.949219 174.160156 159.703125 C 172.894531 160.429688 171.4375 162.847656 171.117188 164.0625 C 170.796875 165.246094 170.726562 169.398438 170.71875 169.863281 C 170.667969 170.261719 170.605469 170.820312 170.535156 171.40625 C 170.125 172.445312 166.046875 182.988281 165.375 186.34375 C 165.03125 188.085938 165.054688 191.054688 165.085938 193.925781 C 165.109375 196.527344 165.140625 199.46875 164.796875 200.285156 C 164.40625 201.238281 163.726562 202.316406 163.070312 203.359375 C 162.511719 204.238281 161.980469 205.078125 161.667969 205.773438 C 161.332031 206.535156 160.980469 207.796875 160.742188 209.109375 Z M 160.742188 209.109375 "/>
<path style=" stroke:none;fill-rule:nonzero;fill:rgb(48.629761%,53.729248%,54.508972%);fill-opacity:1;" d="M 199.851562 192.714844 C 199.851562 192.921875 199.8125 193.125 199.730469 193.316406 C 199.652344 193.507812 199.539062 193.679688 199.390625 193.828125 C 199.242188 193.976562 199.074219 194.089844 198.878906 194.167969 C 198.6875 194.25 198.488281 194.289062 198.277344 194.289062 C 198.070312 194.289062 197.867188 194.25 197.675781 194.167969 C 197.484375 194.089844 197.3125 193.976562 197.164062 193.828125 C 197.019531 193.679688 196.902344 193.507812 196.824219 193.316406 C 196.746094 193.125 196.703125 192.921875 196.703125 192.714844 C 196.703125 192.507812 196.746094 192.304688 196.824219 192.113281 C 196.902344 191.921875 197.019531 191.75 197.164062 191.601562 C 197.3125 191.453125 197.484375 191.339844 197.675781 191.261719 C 197.867188 191.179688 198.070312 191.140625 198.277344 191.140625 C 198.488281 191.140625 198.6875 191.179688 198.878906 191.261719 C 199.074219 191.339844 199.242188 191.453125 199.390625 191.601562 C 199.539062 191.75 199.652344 191.921875 199.730469 192.113281 C 199.8125 192.304688 199.851562 192.507812 199.851562 192.714844 Z M 199.851562 192.714844 "/>
<path style=" stroke:none;fill-rule:nonzero;fill:rgb(48.629761%,53.729248%,54.508972%);fill-opacity:1;" d="M 183.78125 190.667969 C 183.78125 190.875 183.742188 191.074219 183.664062 191.269531 C 183.582031 191.460938 183.46875 191.632812 183.320312 191.777344 C 183.171875 191.925781 183.003906 192.039062 182.8125 192.121094 C 182.617188 192.199219 182.417969 192.238281 182.207031 192.238281 C 182 192.238281 181.800781 192.199219 181.605469 192.121094 C 181.414062 192.039062 181.242188 191.925781 181.097656 191.777344 C 180.949219 191.632812 180.835938 191.460938 180.753906 191.269531 C 180.675781 191.074219 180.636719 190.875 180.636719 190.667969 C 180.636719 190.457031 180.675781 190.257812 180.753906 190.0625 C 180.835938 189.871094 180.949219 189.699219 181.097656 189.554688 C 181.242188 189.40625 181.414062 189.292969 181.605469 189.210938 C 181.800781 189.132812 182 189.09375 182.207031 189.09375 C 182.417969 189.09375 182.617188 189.132812 182.8125 189.210938 C 183.003906 189.292969 183.171875 189.40625 183.320312 189.554688 C 183.46875 189.699219 183.582031 189.871094 183.664062 190.0625 C 183.742188 190.257812 183.78125 190.457031 183.78125 190.667969 Z M 183.78125 190.667969 "/>
<path style=" stroke:none;fill-rule:nonzero;fill:rgb(48.629761%,53.729248%,54.508972%);fill-opacity:1;" d="M 201.667969 193.542969 C 201.933594 192.800781 202.167969 192.027344 202.054688 191.359375 C 201.945312 190.734375 201.492188 190.542969 201.195312 190.421875 C 200.628906 190.183594 199.847656 189.90625 199.0625 189.828125 C 197.738281 189.695312 196.402344 190.160156 195.546875 191.058594 C 194.605469 192.046875 193.929688 194.292969 195.066406 195.4375 C 195.109375 195.484375 195.160156 195.527344 195.210938 195.570312 C 195.777344 196.035156 196.601562 196.269531 197.660156 196.269531 C 197.890625 196.269531 198.117188 196.257812 198.328125 196.238281 C 199.035156 196.175781 199.613281 196 200.089844 195.703125 C 201.039062 195.117188 201.535156 193.898438 201.667969 193.542969 Z M 200.496094 193.117188 C 200.292969 193.675781 199.886719 194.367188 199.4375 194.644531 C 199.125 194.835938 198.726562 194.953125 198.214844 195 C 198.039062 195.015625 197.851562 195.027344 197.65625 195.027344 C 196.917969 195.027344 196.328125 194.878906 196 194.609375 C 195.980469 194.59375 195.964844 194.578125 195.949219 194.5625 C 195.425781 194.035156 195.882812 192.507812 196.445312 191.917969 C 197.039062 191.296875 197.988281 190.972656 198.9375 191.066406 C 199.429688 191.113281 200.042969 191.285156 200.667969 191.546875 C 200.742188 191.578125 200.792969 191.597656 200.832031 191.617188 C 200.878906 192.070312 200.613281 192.796875 200.496094 193.117188 Z M 200.496094 193.117188 "/>
<path style=" stroke:none;fill-rule:nonzero;fill:rgb(48.629761%,53.729248%,54.508972%);fill-opacity:1;" d="M 185.410156 193.753906 C 186.097656 193.308594 186.078125 191.996094 186.039062 191.453125 C 185.980469 190.664062 185.691406 189.890625 185.226562 189.273438 C 184.03125 187.6875 182.019531 187.210938 179.375 187.902344 C 179.121094 187.96875 178.523438 188.121094 178.925781 190.847656 C 179.039062 191.625 179.304688 192.273438 179.71875 192.777344 C 180.082031 193.222656 180.574219 193.582031 181.226562 193.875 C 181.898438 194.179688 182.625 194.339844 183.324219 194.339844 C 184.101562 194.339844 184.820312 194.136719 185.410156 193.753906 Z M 184.691406 192.738281 C 183.929688 193.210938 182.753906 193.199219 181.738281 192.742188 C 181.273438 192.53125 180.917969 192.28125 180.683594 191.992188 C 180.414062 191.664062 180.238281 191.21875 180.15625 190.667969 C 180.121094 190.433594 180.054688 189.507812 180.058594 189.015625 C 182.003906 188.589844 183.402344 188.917969 184.230469 190.023438 C 184.554688 190.449219 184.753906 190.992188 184.796875 191.546875 C 184.835938 192.050781 184.773438 192.578125 184.691406 192.738281 Z M 184.691406 192.738281 "/>
<path style=" stroke:none;fill-rule:nonzero;fill:rgb(48.629761%,53.729248%,54.508972%);fill-opacity:1;" d="M 181.558594 206.1875 L 174.71875 208.800781 C 174.480469 208.890625 174.359375 209.160156 174.449219 209.402344 C 174.523438 209.589844 174.699219 209.703125 174.886719 209.703125 C 174.941406 209.703125 175 209.691406 175.054688 209.671875 L 182.511719 206.820312 C 182.636719 206.894531 182.761719 206.96875 182.898438 207.039062 C 183.261719 207.222656 183.628906 207.355469 183.996094 207.445312 C 184.691406 208.292969 186.328125 209.859375 188.914062 209.859375 C 190.40625 209.859375 191.929688 209.308594 193.453125 208.238281 C 193.558594 208.242188 193.652344 208.253906 193.757812 208.253906 C 194.316406 208.253906 194.929688 208.195312 195.613281 208.054688 C 195.898438 207.996094 196.160156 207.90625 196.410156 207.800781 L 201.222656 210.652344 C 201.296875 210.699219 201.378906 210.71875 201.460938 210.71875 C 201.617188 210.71875 201.773438 210.636719 201.863281 210.488281 C 201.992188 210.269531 201.917969 209.980469 201.699219 209.851562 L 197.355469 207.277344 C 197.898438 206.882812 198.335938 206.382812 198.691406 205.859375 L 204.851562 207.34375 C 204.890625 207.351562 204.925781 207.355469 204.960938 207.355469 C 205.171875 207.355469 205.363281 207.210938 205.417969 207 C 205.476562 206.75 205.324219 206.496094 205.070312 206.4375 L 199.191406 205.019531 C 199.519531 204.378906 199.738281 203.757812 199.875 203.285156 L 203.683594 203.148438 C 203.941406 203.136719 204.140625 202.921875 204.132812 202.664062 C 204.125 202.40625 203.894531 202.210938 203.648438 202.214844 L 200.070312 202.34375 C 200.066406 202.054688 199.867188 201.796875 199.570312 201.746094 C 199.230469 201.683594 198.910156 201.910156 198.847656 202.25 C 198.847656 202.253906 198.839844 202.308594 198.820312 202.390625 L 196.546875 202.472656 C 196.289062 202.484375 196.085938 202.699219 196.097656 202.957031 C 196.105469 203.210938 196.3125 203.40625 196.5625 203.40625 C 196.566406 203.40625 196.574219 203.40625 196.578125 203.40625 L 198.550781 203.335938 C 198.40625 203.75 198.207031 204.234375 197.9375 204.71875 L 195.945312 204.238281 C 195.691406 204.179688 195.441406 204.332031 195.382812 204.582031 C 195.320312 204.832031 195.476562 205.085938 195.726562 205.144531 L 197.375 205.542969 C 197.039062 205.953125 196.628906 206.308594 196.140625 206.554688 L 194.699219 205.703125 C 194.480469 205.570312 194.191406 205.644531 194.058594 205.867188 C 193.929688 206.085938 194.003906 206.375 194.222656 206.503906 L 194.90625 206.910156 C 191.636719 207.40625 190.457031 205.671875 190.269531 205.351562 L 191.703125 204.074219 C 191.941406 203.863281 192.066406 203.558594 192.046875 203.242188 C 192.023438 202.925781 191.863281 202.644531 191.605469 202.46875 C 191.089844 202.121094 190.4375 201.914062 189.660156 201.847656 C 189.046875 201.796875 188.511719 201.863281 188.011719 202.03125 C 187.683594 202.144531 187.4375 202.414062 187.351562 202.75 C 187.269531 203.089844 187.359375 203.441406 187.597656 203.699219 L 189.042969 205.230469 C 188.292969 205.675781 186.148438 206.765625 184.152344 206.195312 L 184.652344 206.003906 C 184.894531 205.910156 185.015625 205.640625 184.921875 205.402344 C 184.828125 205.160156 184.558594 205.039062 184.320312 205.132812 L 182.964844 205.648438 C 182.253906 205.222656 181.75 204.761719 181.386719 204.285156 L 182.6875 204.285156 C 182.945312 204.285156 183.15625 204.074219 183.15625 203.816406 C 183.15625 203.558594 182.945312 203.351562 182.6875 203.351562 L 180.851562 203.351562 C 180.691406 202.960938 180.59375 202.574219 180.53125 202.1875 L 181.585938 202.511719 C 181.628906 202.523438 181.675781 202.53125 181.722656 202.53125 C 181.921875 202.53125 182.105469 202.402344 182.167969 202.203125 C 182.242188 201.953125 182.105469 201.695312 181.859375 201.617188 L 180.417969 201.179688 L 180.296875 199.957031 C 180.261719 199.613281 179.960938 199.363281 179.613281 199.398438 C 179.273438 199.433594 179.023438 199.738281 179.058594 200.078125 L 179.128906 200.785156 L 173.363281 199.019531 C 173.117188 198.945312 172.855469 199.082031 172.78125 199.332031 C 172.707031 199.578125 172.84375 199.835938 173.089844 199.914062 L 179.226562 201.789062 C 179.261719 202.222656 179.332031 202.761719 179.519531 203.351562 L 172.398438 203.351562 C 172.140625 203.351562 171.929688 203.558594 171.929688 203.816406 C 171.929688 204.074219 172.140625 204.285156 172.398438 204.285156 L 179.917969 204.285156 C 180.261719 204.921875 180.777344 205.578125 181.558594 206.1875 Z M 188.914062 208.613281 C 187.628906 208.613281 186.636719 208.121094 185.933594 207.582031 C 187.449219 207.445312 188.785156 206.8125 189.496094 206.410156 C 189.867188 206.875 190.542969 207.507812 191.625 207.898438 C 190.832031 208.300781 189.902344 208.613281 188.917969 208.613281 C 188.914062 208.613281 188.914062 208.613281 188.914062 208.613281 Z M 188.914062 208.613281 "/>
<g clip-path="url(#clip2)" clip-rule="nonzero">
<path style=" stroke:none;fill-rule:nonzero;fill:rgb(48.629761%,53.729248%,54.508972%);fill-opacity:1;" d="M 151.4375 187.4375 C 151.4375 167.585938 167.585938 151.4375 187.4375 151.4375 C 207.289062 151.4375 223.4375 167.585938 223.4375 187.4375 C 223.4375 207.289062 207.289062 223.4375 187.4375 223.4375 C 167.585938 223.4375 151.4375 207.289062 151.4375 187.4375 Z M 153.039062 187.4375 C 153.039062 206.40625 168.46875 221.835938 187.4375 221.835938 C 206.40625 221.835938 221.835938 206.40625 221.835938 187.4375 C 221.835938 168.46875 206.40625 153.039062 187.4375 153.039062 C 168.46875 153.039062 153.039062 168.46875 153.039062 187.4375 Z M 153.039062 187.4375 "/>
</g>
<g clip-path="url(#clip3)" clip-rule="nonzero">
<path style=" stroke:none;fill-rule:nonzero;fill:rgb(96.469116%,95.689392%,94.509888%);fill-opacity:1;" d="M 168.199219 115.789062 C 168.035156 115.851562 167.867188 115.949219 167.734375 116.0625 C 167.234375 116.492188 166.722656 116.910156 166.257812 117.375 C 164.394531 119.234375 162.644531 121.203125 161.058594 123.304688 C 158.847656 126.242188 156.710938 129.234375 154.542969 132.203125 C 154.179688 132.703125 153.824219 133.203125 153.464844 133.703125 C 153.425781 133.519531 153.480469 133.398438 153.546875 133.285156 C 154.0625 132.457031 154.566406 131.621094 155.09375 130.800781 C 156 129.386719 156.859375 127.941406 157.847656 126.585938 C 159.78125 123.925781 161.792969 121.320312 163.769531 118.691406 C 164.667969 117.492188 165.535156 116.265625 166.144531 114.886719 C 166.324219 114.476562 166.421875 114.023438 166.496094 113.582031 C 166.527344 113.414062 166.429688 113.171875 166.304688 113.050781 C 166.246094 112.992188 165.972656 113.09375 165.832031 113.179688 C 165.5625 113.347656 165.308594 113.539062 165.070312 113.746094 C 163.648438 114.984375 162.316406 116.3125 161.109375 117.765625 C 160.96875 117.933594 160.8125 118.089844 160.660156 118.25 C 161.261719 117.179688 161.949219 116.195312 162.566406 115.164062 C 163.175781 114.148438 163.792969 113.121094 163.976562 111.902344 C 163.535156 111.703125 163.300781 111.96875 163.09375 112.179688 C 162.019531 113.285156 160.886719 114.34375 159.917969 115.535156 C 158.425781 117.363281 156.996094 119.246094 155.644531 121.179688 C 153.433594 124.34375 151.308594 127.5625 149.144531 130.757812 C 149.082031 130.847656 148.992188 130.917969 148.8125 131.101562 C 148.875 130.886719 148.886719 130.820312 148.914062 130.765625 C 150.535156 127.660156 152.355469 124.679688 154.273438 121.753906 C 156.199219 118.8125 158.203125 115.921875 159.796875 112.773438 C 159.992188 112.386719 160.234375 112.027344 160.417969 111.636719 C 160.515625 111.433594 160.539062 111.195312 160.601562 110.949219 C 160.019531 110.957031 159.992188 110.929688 159.566406 111.359375 C 158.851562 112.082031 158.152344 112.828125 157.488281 113.601562 C 156.308594 114.980469 155.085938 116.332031 154.015625 117.792969 C 152.058594 120.46875 150.410156 123.351562 148.75 126.222656 C 148.585938 126.511719 148.378906 126.796875 148.132812 127.015625 C 146.992188 128.027344 145.960938 129.140625 145.007812 130.332031 C 144.882812 130.492188 144.734375 130.632812 144.597656 130.785156 C 145.136719 129.429688 145.730469 128.128906 146.417969 126.882812 C 147.566406 124.792969 148.773438 122.738281 149.953125 120.664062 C 150.085938 120.429688 150.191406 120.175781 150.277344 119.921875 C 150.304688 119.84375 150.242188 119.683594 150.171875 119.636719 C 150.097656 119.585938 149.925781 119.585938 149.859375 119.640625 C 149.65625 119.8125 149.449219 120 149.296875 120.21875 C 147.804688 122.304688 146.328125 124.398438 144.84375 126.488281 C 143.609375 128.230469 142.375 129.96875 141.132812 131.703125 C 141.054688 131.808594 140.929688 131.882812 140.746094 132.039062 C 140.789062 131.847656 140.789062 131.777344 140.820312 131.722656 C 141.746094 129.953125 142.613281 128.152344 143.613281 126.421875 C 144.972656 124.066406 146.4375 121.769531 147.84375 119.4375 C 148.3125 118.660156 148.777344 117.875 149.164062 117.058594 C 149.371094 116.617188 149.445312 116.105469 149.503906 115.617188 C 149.527344 115.4375 149.371094 115.164062 149.214844 115.066406 C 149.101562 115 148.804688 115.101562 148.675781 115.222656 C 148.214844 115.652344 147.71875 116.074219 147.363281 116.589844 C 145.734375 118.964844 144.144531 121.367188 142.542969 123.765625 C 141.496094 125.328125 140.457031 126.898438 139.410156 128.464844 C 139.28125 128.652344 139.128906 128.828125 138.992188 129.007812 C 138.949219 128.976562 138.90625 128.949219 138.863281 128.917969 C 139.15625 128.332031 139.414062 127.730469 139.742188 127.167969 C 141.003906 125.015625 142.273438 122.867188 143.5625 120.730469 C 144.378906 119.367188 145.246094 118.035156 146.0625 116.671875 C 146.277344 116.304688 146.421875 115.886719 146.542969 115.480469 C 146.605469 115.277344 146.589844 115.023438 146.527344 114.816406 C 146.410156 114.398438 146.109375 114.277344 145.742188 114.5 C 145.496094 114.652344 145.273438 114.855469 145.058594 115.058594 C 143.695312 116.328125 142.773438 117.925781 141.816406 119.496094 C 140.644531 121.414062 139.503906 123.347656 138.335938 125.269531 C 137.976562 125.859375 137.578125 126.429688 137.199219 127.007812 C 137.164062 126.789062 137.226562 126.625 137.308594 126.472656 C 138.019531 125.128906 138.710938 123.777344 139.449219 122.449219 C 140.683594 120.226562 141.949219 118.023438 143.203125 115.8125 C 143.546875 115.199219 143.929688 114.605469 144.222656 113.96875 C 144.398438 113.585938 144.472656 113.144531 144.519531 112.722656 C 144.554688 112.4375 144.34375 112.308594 144.074219 112.402344 C 143.929688 112.449219 143.785156 112.539062 143.675781 112.648438 C 143.339844 112.984375 142.988281 113.3125 142.695312 113.683594 C 140.789062 116.117188 139.074219 118.683594 137.570312 121.386719 C 136.945312 122.519531 136.238281 123.605469 135.558594 124.707031 C 135.464844 124.855469 135.332031 124.980469 135.214844 125.117188 C 135.839844 123.542969 136.664062 122.113281 137.546875 120.707031 C 139.125 118.1875 140.640625 115.628906 142.175781 113.085938 C 142.339844 112.8125 142.488281 112.527344 142.605469 112.234375 C 142.773438 111.816406 142.613281 111.605469 142.167969 111.699219 C 141.867188 111.761719 141.554688 111.886719 141.308594 112.066406 C 140.929688 112.351562 140.578125 112.683594 140.261719 113.035156 C 138.875 114.574219 137.816406 116.355469 136.65625 118.0625 C 136.285156 118.613281 135.90625 119.15625 135.53125 119.703125 C 135.457031 119.558594 135.472656 119.472656 135.511719 119.398438 C 136.492188 117.609375 137.480469 115.820312 138.457031 114.027344 C 138.597656 113.769531 138.742188 113.507812 138.832031 113.230469 C 138.9375 112.898438 138.738281 112.703125 138.445312 112.84375 C 137.804688 113.148438 137.230469 113.558594 136.824219 114.152344 C 136.761719 114.242188 136.816406 114.414062 136.8125 114.640625 C 137.171875 114.417969 137.421875 114.261719 137.792969 114.03125 C 137.699219 114.273438 137.671875 114.378906 137.621094 114.46875 C 136.578125 116.40625 135.523438 118.339844 134.484375 120.28125 C 134.347656 120.539062 134.238281 120.820312 134.175781 121.101562 C 134.148438 121.226562 134.226562 121.441406 134.324219 121.507812 C 134.421875 121.570312 134.65625 121.539062 134.75 121.457031 C 135.015625 121.21875 135.277344 120.957031 135.476562 120.660156 C 136.5 119.160156 137.507812 117.648438 138.511719 116.136719 C 139.332031 114.90625 140.140625 113.671875 141.28125 112.703125 C 141.4375 112.570312 141.617188 112.457031 141.785156 112.335938 C 141.828125 112.375 141.867188 112.410156 141.90625 112.449219 C 141.746094 112.761719 141.597656 113.085938 141.417969 113.390625 C 141.066406 113.972656 140.695312 114.542969 140.339844 115.125 C 139.160156 117.0625 137.953125 118.988281 136.816406 120.949219 C 135.953125 122.441406 135.179688 123.988281 134.367188 125.507812 C 134.257812 125.714844 134.167969 125.949219 134.371094 126.136719 C 134.59375 126.335938 134.859375 126.277344 135.054688 126.105469 C 135.328125 125.867188 135.609375 125.617188 135.800781 125.320312 C 136.445312 124.308594 137.082031 123.285156 137.675781 122.238281 C 138.617188 120.582031 139.519531 118.902344 140.644531 117.355469 C 141.378906 116.347656 142.070312 115.308594 142.796875 114.292969 C 143.085938 113.886719 143.441406 113.539062 143.910156 113.304688 C 143.707031 113.875 143.472656 114.414062 143.179688 114.921875 C 142.371094 116.316406 141.507812 117.679688 140.71875 119.082031 C 139.734375 120.820312 138.789062 122.582031 137.851562 124.34375 C 137.316406 125.34375 136.820312 126.363281 136.332031 127.386719 C 136.207031 127.648438 136.136719 127.949219 136.117188 128.238281 C 136.09375 128.566406 136.335938 128.691406 136.609375 128.519531 C 136.742188 128.4375 136.867188 128.324219 136.960938 128.203125 C 137.289062 127.769531 137.636719 127.347656 137.921875 126.882812 C 138.738281 125.550781 139.519531 124.195312 140.332031 122.855469 C 141.1875 121.441406 142.109375 120.058594 142.917969 118.617188 C 143.558594 117.476562 144.347656 116.46875 145.238281 115.527344 C 145.425781 115.324219 145.667969 115.175781 145.941406 114.960938 C 146.082031 115.371094 146.019531 115.652344 145.890625 115.917969 C 145.765625 116.1875 145.632812 116.453125 145.480469 116.703125 C 144.601562 118.132812 143.722656 119.566406 142.828125 120.988281 C 140.988281 123.910156 139.273438 126.902344 137.769531 130.011719 C 137.722656 130.113281 137.644531 130.21875 137.640625 130.324219 C 137.636719 130.46875 137.640625 130.671875 137.730469 130.742188 C 137.8125 130.808594 138.015625 130.757812 138.152344 130.710938 C 138.25 130.675781 138.335938 130.578125 138.40625 130.492188 C 138.964844 129.808594 139.558594 129.148438 140.0625 128.425781 C 140.964844 127.121094 141.8125 125.777344 142.683594 124.449219 C 143.539062 123.140625 144.386719 121.824219 145.261719 120.527344 C 146.171875 119.175781 147.109375 117.835938 148.050781 116.503906 C 148.265625 116.203125 148.507812 115.898438 148.988281 115.640625 C 148.941406 115.972656 148.957031 116.203125 148.875 116.382812 C 148.5625 117.0625 148.269531 117.753906 147.882812 118.390625 C 146.785156 120.21875 145.574219 121.984375 144.53125 123.84375 C 142.890625 126.777344 141.355469 129.765625 139.78125 132.730469 C 139.664062 132.949219 139.550781 133.179688 139.488281 133.417969 C 139.457031 133.546875 139.484375 133.769531 139.566406 133.832031 C 139.664062 133.902344 139.902344 133.894531 140 133.820312 C 140.261719 133.613281 140.519531 133.378906 140.71875 133.109375 C 141.375 132.242188 142.023438 131.363281 142.640625 130.46875 C 144.21875 128.195312 145.78125 125.910156 147.347656 123.632812 C 147.6875 123.144531 148.035156 122.664062 148.375 122.183594 C 148.414062 122.207031 148.453125 122.230469 148.492188 122.257812 C 148.292969 122.609375 148.109375 122.964844 147.894531 123.308594 C 146.761719 125.144531 145.742188 127.042969 144.8125 128.992188 C 144.144531 130.382812 143.40625 131.738281 142.71875 133.121094 C 142.589844 133.382812 142.179688 133.714844 142.484375 133.945312 C 142.847656 134.21875 143.058594 133.707031 143.238281 133.480469 C 143.917969 132.628906 144.546875 131.738281 145.203125 130.867188 C 145.535156 130.429688 145.882812 130.007812 146.226562 129.578125 C 145.996094 130.269531 145.648438 130.878906 145.347656 131.507812 C 144.660156 132.964844 143.992188 134.433594 143.328125 135.902344 C 143.222656 136.128906 142.902344 136.429688 143.207031 136.617188 C 143.578125 136.84375 143.683594 136.390625 143.8125 136.164062 C 144.78125 134.46875 145.738281 132.765625 146.679688 131.058594 C 147.621094 129.351562 148.511719 127.613281 149.480469 125.921875 C 150.425781 124.265625 151.425781 122.640625 152.425781 121.019531 C 153.042969 120.015625 153.625 118.972656 154.359375 118.058594 C 155.878906 116.167969 157.492188 114.351562 159.066406 112.507812 C 159.160156 112.402344 159.285156 112.324219 159.394531 112.234375 C 158.796875 113.527344 158.160156 114.777344 157.433594 115.976562 C 156.515625 117.488281 155.519531 118.953125 154.570312 120.449219 C 153.203125 122.59375 151.8125 124.722656 150.503906 126.898438 C 149.511719 128.554688 148.648438 130.285156 147.699219 131.960938 C 146.882812 133.40625 146.023438 134.820312 145.195312 136.253906 C 145.046875 136.507812 144.949219 136.789062 144.867188 137.070312 C 144.835938 137.171875 144.886719 137.367188 144.964844 137.414062 C 145.050781 137.460938 145.21875 137.410156 145.328125 137.359375 C 145.425781 137.316406 145.507812 137.21875 145.574219 137.128906 C 145.957031 136.625 146.363281 136.132812 146.703125 135.597656 C 147.613281 134.160156 148.460938 132.683594 149.394531 131.257812 C 150.722656 129.230469 152.097656 127.226562 153.464844 125.222656 C 154.71875 123.390625 155.976562 121.554688 157.261719 119.746094 C 158.035156 118.652344 158.832031 117.574219 159.683594 116.546875 C 160.582031 115.464844 161.554688 114.449219 162.5 113.410156 C 162.65625 113.238281 162.839844 113.097656 163.011719 112.941406 C 162.53125 114.269531 161.898438 115.464844 161.101562 116.574219 C 160.480469 117.441406 159.871094 118.316406 159.238281 119.175781 C 158.046875 120.808594 156.84375 122.429688 155.644531 124.054688 C 154.46875 125.640625 153.253906 127.199219 152.128906 128.820312 C 150.925781 130.550781 149.816406 132.351562 148.648438 134.109375 C 147.902344 135.222656 147.152344 136.328125 146.628906 137.570312 C 146.554688 137.75 146.480469 137.925781 146.417969 138.078125 C 146.6875 138.328125 146.859375 138.207031 147.007812 138.058594 C 147.296875 137.773438 147.589844 137.488281 147.855469 137.175781 C 149.214844 135.585938 150.324219 133.816406 151.460938 132.066406 C 152.832031 129.953125 154.160156 127.808594 155.601562 125.75 C 157.085938 123.632812 158.667969 121.585938 160.242188 119.539062 C 161.625 117.738281 163.152344 116.058594 164.828125 114.527344 C 165.152344 114.230469 165.488281 113.945312 166.027344 113.710938 C 165.929688 114.035156 165.898438 114.238281 165.8125 114.410156 C 165.554688 114.941406 165.332031 115.5 164.992188 115.976562 C 163.449219 118.160156 161.871094 120.324219 160.300781 122.492188 C 158.835938 124.511719 157.304688 126.488281 155.921875 128.5625 C 154.058594 131.355469 152.3125 134.226562 150.515625 137.066406 C 149.871094 138.082031 149.230469 139.101562 148.59375 140.121094 C 148.496094 140.28125 148.410156 140.484375 148.636719 140.582031 C 148.738281 140.625 148.949219 140.554688 149.039062 140.464844 C 149.324219 140.175781 149.589844 139.859375 149.839844 139.535156 C 150.753906 138.351562 151.6875 137.183594 152.5625 135.96875 C 153.355469 134.867188 154.066406 133.699219 154.84375 132.585938 C 155.804688 131.207031 156.785156 129.84375 157.785156 128.496094 C 159.421875 126.292969 161.023438 124.0625 162.746094 121.925781 C 163.980469 120.390625 165.375 118.988281 166.722656 117.542969 C 167.019531 117.222656 167.402344 116.980469 167.746094 116.703125 C 167.8125 116.902344 167.785156 117.027344 167.746094 117.148438 C 167.257812 118.636719 166.421875 119.9375 165.480469 121.164062 C 163.695312 123.484375 161.84375 125.75 160.042969 128.058594 C 158.5625 129.953125 157.085938 131.855469 155.667969 133.796875 C 154.089844 135.957031 152.578125 138.167969 151.039062 140.359375 C 151 140.414062 150.929688 140.472656 150.929688 140.527344 C 150.933594 140.648438 150.941406 140.789062 151.003906 140.882812 C 151.03125 140.921875 151.238281 140.90625 151.300781 140.847656 C 151.542969 140.609375 151.78125 140.363281 151.984375 140.089844 C 152.914062 138.835938 153.839844 137.574219 154.757812 136.304688 C 155.316406 135.53125 155.84375 134.738281 156.40625 133.96875 C 158.628906 130.953125 161.019531 128.070312 163.480469 125.25 C 164.257812 124.359375 165.121094 123.554688 166.097656 122.882812 C 166.339844 122.714844 166.585938 122.492188 167.046875 122.519531 C 166.808594 122.949219 166.652344 123.320312 166.417969 123.644531 C 165.714844 124.617188 165.011719 125.597656 164.257812 126.53125 C 162.691406 128.472656 161.070312 130.375 159.507812 132.320312 C 158.089844 134.089844 156.710938 135.894531 155.320312 137.6875 C 154.390625 138.890625 153.464844 140.09375 152.550781 141.308594 C 151.828125 142.269531 151.113281 143.238281 150.429688 144.226562 C 150.269531 144.453125 149.917969 144.78125 150.265625 145.050781 C 150.566406 145.285156 150.855469 144.96875 151.089844 144.765625 C 152.238281 143.769531 153.332031 142.722656 154.289062 141.527344 C 156 139.382812 157.742188 137.261719 159.484375 135.140625 C 159.820312 134.730469 160.203125 134.355469 160.566406 133.960938 C 160.613281 134.078125 160.597656 134.140625 160.5625 134.1875 C 159.324219 135.839844 158.058594 137.472656 156.839844 139.140625 C 155.347656 141.195312 153.886719 143.277344 152.421875 145.355469 C 152.265625 145.578125 151.945312 145.863281 152.238281 146.121094 C 152.519531 146.371094 152.765625 146.015625 152.988281 145.851562 C 153.300781 145.621094 153.589844 145.355469 153.890625 145.105469 C 153.363281 146.09375 152.785156 147.015625 152.238281 147.953125 C 152.132812 148.128906 152.035156 148.417969 152.109375 148.566406 C 152.242188 148.839844 152.503906 148.609375 152.710938 148.570312 C 152.738281 148.566406 152.777344 148.609375 152.855469 148.652344 C 152.660156 148.933594 152.464844 149.207031 152.273438 149.484375 C 152.121094 149.699219 152 149.910156 152.238281 150.148438 C 152.449219 150.359375 152.332031 150.574219 152.210938 150.769531 C 152.140625 150.882812 152.007812 150.957031 151.945312 151.074219 C 151.90625 151.15625 151.910156 151.351562 151.945312 151.367188 C 152.050781 151.40625 152.246094 151.429688 152.285156 151.371094 C 152.46875 151.117188 152.613281 150.835938 152.769531 150.5625 C 153.019531 150.136719 153.242188 149.691406 153.523438 149.285156 C 153.757812 148.953125 154.054688 148.664062 154.335938 148.371094 C 154.617188 148.078125 154.855469 147.789062 154.605469 147.402344 C 154.835938 147.011719 155.363281 146.863281 155.265625 146.230469 C 155.0625 146.316406 154.894531 146.355469 154.761719 146.445312 C 154.332031 146.742188 153.917969 147.058594 153.488281 147.355469 C 153.378906 147.433594 153.246094 147.46875 152.976562 147.59375 C 153.179688 147.226562 153.273438 146.988281 153.421875 146.796875 C 154.253906 145.722656 155.082031 144.640625 155.953125 143.59375 C 156.386719 143.074219 156.914062 142.632812 157.386719 142.144531 C 157.578125 141.949219 157.855469 141.757812 157.636719 141.3125 C 157.410156 141.453125 157.191406 141.550781 157.019531 141.703125 C 156.167969 142.453125 155.332031 143.21875 154.480469 143.96875 C 154.292969 144.136719 154.070312 144.269531 153.867188 144.414062 C 153.832031 144.378906 153.800781 144.34375 153.769531 144.304688 C 153.894531 144.097656 154.007812 143.882812 154.148438 143.683594 C 154.953125 142.53125 155.734375 141.359375 156.582031 140.238281 C 158.375 137.867188 160.203125 135.523438 162.007812 133.164062 C 162.269531 132.820312 162.515625 132.464844 162.742188 132.097656 C 162.796875 132.007812 162.792969 131.804688 162.726562 131.738281 C 162.660156 131.671875 162.464844 131.667969 162.363281 131.714844 C 162.207031 131.792969 162.074219 131.929688 161.9375 132.046875 C 160.046875 133.695312 158.445312 135.605469 156.875 137.546875 C 155.574219 139.152344 154.265625 140.75 152.941406 142.332031 C 152.503906 142.855469 151.996094 143.316406 151.410156 143.675781 C 151.519531 143.4375 151.65625 143.230469 151.808594 143.035156 C 152.898438 141.613281 153.992188 140.191406 155.089844 138.777344 C 157.027344 136.285156 158.949219 133.785156 160.910156 131.316406 C 162.304688 129.554688 163.773438 127.851562 165.179688 126.101562 C 165.890625 125.214844 166.5625 124.300781 167.203125 123.363281 C 167.421875 123.039062 167.542969 122.625 167.617188 122.234375 C 167.683594 121.894531 167.445312 121.726562 167.109375 121.8125 C 166.9375 121.855469 166.773438 121.941406 166.609375 122.019531 C 165.796875 122.40625 165.140625 123 164.488281 123.59375 C 164.332031 123.734375 164.171875 123.867188 164.015625 124.003906 C 164.730469 122.929688 165.472656 121.902344 166.246094 120.902344 C 167.230469 119.628906 167.953125 118.222656 168.480469 116.714844 C 168.546875 116.523438 168.609375 116.320312 168.625 116.121094 C 168.648438 115.820312 168.476562 115.691406 168.199219 115.789062 "/>
<path style=" stroke:none;fill-rule:nonzero;fill:rgb(48.629761%,53.729248%,54.508972%);fill-opacity:1;" d="M 160.601562 110.949219 C 160.539062 111.195312 160.515625 111.433594 160.417969 111.636719 C 160.234375 112.027344 159.992188 112.386719 159.796875 112.773438 C 158.203125 115.921875 156.199219 118.8125 154.273438 121.753906 C 152.355469 124.679688 150.535156 127.660156 148.914062 130.765625 C 148.886719 130.820312 148.875 130.886719 148.8125 131.101562 C 148.992188 130.917969 149.082031 130.847656 149.144531 130.757812 C 151.308594 127.5625 153.433594 124.34375 155.644531 121.179688 C 156.996094 119.246094 158.425781 117.363281 159.917969 115.535156 C 160.886719 114.34375 162.019531 113.285156 163.09375 112.179688 C 163.300781 111.96875 163.535156 111.703125 163.976562 111.902344 C 163.792969 113.121094 163.175781 114.148438 162.566406 115.164062 C 161.949219 116.195312 161.261719 117.179688 160.660156 118.25 C 160.8125 118.089844 160.96875 117.933594 161.109375 117.765625 C 162.316406 116.3125 163.648438 114.984375 165.070312 113.746094 C 165.308594 113.539062 165.5625 113.347656 165.832031 113.179688 C 165.972656 113.09375 166.246094 112.992188 166.304688 113.050781 C 166.429688 113.171875 166.527344 113.414062 166.496094 113.582031 C 166.421875 114.023438 166.324219 114.476562 166.144531 114.886719 C 165.535156 116.265625 164.667969 117.492188 163.769531 118.691406 C 161.792969 121.320312 159.78125 123.925781 157.847656 126.585938 C 156.859375 127.941406 156 129.386719 155.09375 130.800781 C 154.566406 131.621094 154.0625 132.457031 153.546875 133.285156 C 153.480469 133.398438 153.425781 133.519531 153.464844 133.703125 C 153.824219 133.203125 154.179688 132.703125 154.542969 132.203125 C 156.710938 129.234375 158.847656 126.242188 161.058594 123.304688 C 162.644531 121.203125 164.394531 119.234375 166.257812 117.375 C 166.722656 116.910156 167.234375 116.492188 167.734375 116.0625 C 167.867188 115.949219 168.035156 115.851562 168.199219 115.789062 C 168.476562 115.691406 168.648438 115.820312 168.625 116.121094 C 168.609375 116.320312 168.546875 116.523438 168.480469 116.714844 C 167.953125 118.222656 167.230469 119.628906 166.246094 120.902344 C 165.472656 121.902344 164.730469 122.929688 164.015625 124.003906 C 164.171875 123.867188 164.332031 123.734375 164.488281 123.59375 C 165.140625 123 165.796875 122.40625 166.609375 122.019531 C 166.773438 121.941406 166.9375 121.855469 167.109375 121.8125 C 167.445312 121.726562 167.683594 121.894531 167.617188 122.234375 C 167.542969 122.625 167.421875 123.039062 167.203125 123.363281 C 166.5625 124.300781 165.890625 125.214844 165.179688 126.101562 C 163.773438 127.851562 162.304688 129.554688 160.910156 131.316406 C 158.949219 133.785156 157.027344 136.285156 155.089844 138.777344 C 153.992188 140.191406 152.898438 141.613281 151.808594 143.035156 C 151.65625 143.230469 151.519531 143.4375 151.410156 143.675781 C 151.996094 143.316406 152.503906 142.855469 152.941406 142.332031 C 154.265625 140.75 155.574219 139.152344 156.875 137.546875 C 158.445312 135.605469 160.046875 133.695312 161.9375 132.046875 C 162.074219 131.929688 162.207031 131.792969 162.363281 131.714844 C 162.464844 131.667969 162.660156 131.671875 162.726562 131.738281 C 162.792969 131.804688 162.796875 132.007812 162.742188 132.097656 C 162.515625 132.464844 162.269531 132.820312 162.007812 133.164062 C 160.203125 135.523438 158.375 137.867188 156.582031 140.238281 C 155.734375 141.359375 154.953125 142.53125 154.148438 143.683594 C 154.007812 143.882812 153.894531 144.097656 153.769531 144.304688 C 153.800781 144.34375 153.832031 144.378906 153.867188 144.414062 C 154.070312 144.269531 154.292969 144.136719 154.480469 143.96875 C 155.332031 143.21875 156.167969 142.453125 157.019531 141.703125 C 157.191406 141.550781 157.410156 141.453125 157.636719 141.3125 C 157.855469 141.757812 157.578125 141.949219 157.386719 142.144531 C 156.914062 142.632812 156.386719 143.074219 155.953125 143.59375 C 155.082031 144.640625 154.253906 145.722656 153.421875 146.796875 C 153.273438 146.988281 153.179688 147.226562 152.976562 147.59375 C 153.246094 147.46875 153.378906 147.433594 153.488281 147.355469 C 153.917969 147.058594 154.332031 146.742188 154.761719 146.445312 C 154.894531 146.355469 155.0625 146.316406 155.265625 146.230469 C 155.363281 146.863281 154.835938 147.011719 154.605469 147.402344 C 154.855469 147.789062 154.617188 148.078125 154.335938 148.371094 C 154.054688 148.664062 153.757812 148.953125 153.523438 149.285156 C 153.242188 149.691406 153.019531 150.136719 152.769531 150.5625 C 152.613281 150.835938 152.46875 151.117188 152.285156 151.371094 C 152.246094 151.429688 152.050781 151.40625 151.945312 151.367188 C 151.910156 151.351562 151.90625 151.15625 151.945312 151.074219 C 152.007812 150.957031 152.140625 150.882812 152.210938 150.769531 C 152.332031 150.574219 152.449219 150.359375 152.238281 150.148438 C 152 149.910156 152.121094 149.699219 152.273438 149.484375 C 152.464844 149.207031 152.660156 148.933594 152.855469 148.652344 C 152.777344 148.609375 152.738281 148.566406 152.710938 148.570312 C 152.503906 148.609375 152.242188 148.839844 152.109375 148.566406 C 152.035156 148.417969 152.132812 148.128906 152.238281 147.953125 C 152.785156 147.015625 153.363281 146.09375 153.890625 145.105469 C 153.589844 145.355469 153.300781 145.621094 152.988281 145.851562 C 152.765625 146.015625 152.519531 146.371094 152.238281 146.121094 C 151.945312 145.863281 152.265625 145.578125 152.421875 145.355469 C 153.886719 143.277344 155.347656 141.195312 156.839844 139.140625 C 158.058594 137.472656 159.324219 135.839844 160.5625 134.1875 C 160.597656 134.140625 160.613281 134.078125 160.566406 133.960938 C 160.203125 134.355469 159.820312 134.730469 159.484375 135.140625 C 157.742188 137.261719 156 139.382812 154.289062 141.527344 C 153.332031 142.722656 152.238281 143.769531 151.089844 144.765625 C 150.855469 144.96875 150.566406 145.285156 150.265625 145.050781 C 149.917969 144.78125 150.269531 144.453125 150.429688 144.226562 C 151.113281 143.238281 151.828125 142.269531 152.550781 141.308594 C 153.464844 140.09375 154.390625 138.890625 155.320312 137.6875 C 156.710938 135.894531 158.089844 134.089844 159.507812 132.320312 C 161.070312 130.375 162.691406 128.472656 164.257812 126.53125 C 165.011719 125.597656 165.714844 124.617188 166.417969 123.644531 C 166.652344 123.320312 166.808594 122.949219 167.046875 122.519531 C 166.585938 122.492188 166.339844 122.714844 166.097656 122.882812 C 165.121094 123.554688 164.257812 124.359375 163.480469 125.25 C 161.019531 128.070312 158.628906 130.953125 156.40625 133.96875 C 155.84375 134.738281 155.316406 135.53125 154.757812 136.304688 C 153.839844 137.574219 152.914062 138.835938 151.984375 140.089844 C 151.78125 140.363281 151.542969 140.609375 151.300781 140.847656 C 151.238281 140.90625 151.03125 140.921875 151.003906 140.882812 C 150.941406 140.789062 150.933594 140.648438 150.929688 140.527344 C 150.929688 140.472656 151 140.414062 151.039062 140.359375 C 152.578125 138.167969 154.089844 135.957031 155.667969 133.796875 C 157.085938 131.855469 158.5625 129.953125 160.042969 128.058594 C 161.84375 125.75 163.695312 123.484375 165.480469 121.164062 C 166.421875 119.9375 167.257812 118.636719 167.746094 117.148438 C 167.785156 117.027344 167.8125 116.902344 167.746094 116.703125 C 167.402344 116.980469 167.019531 117.222656 166.722656 117.542969 C 165.375 118.988281 163.980469 120.390625 162.746094 121.925781 C 161.023438 124.0625 159.421875 126.292969 157.785156 128.496094 C 156.785156 129.84375 155.804688 131.207031 154.84375 132.585938 C 154.066406 133.699219 153.355469 134.867188 152.5625 135.96875 C 151.6875 137.183594 150.753906 138.351562 149.839844 139.535156 C 149.589844 139.859375 149.324219 140.175781 149.039062 140.464844 C 148.949219 140.554688 148.738281 140.625 148.636719 140.582031 C 148.410156 140.484375 148.496094 140.28125 148.59375 140.121094 C 149.230469 139.101562 149.871094 138.082031 150.515625 137.066406 C 152.3125 134.226562 154.058594 131.355469 155.921875 128.5625 C 157.304688 126.488281 158.835938 124.511719 160.300781 122.492188 C 161.871094 120.324219 163.449219 118.160156 164.992188 115.976562 C 165.332031 115.5 165.554688 114.941406 165.8125 114.410156 C 165.898438 114.238281 165.929688 114.035156 166.027344 113.710938 C 165.488281 113.945312 165.152344 114.230469 164.828125 114.527344 C 163.152344 116.058594 161.625 117.738281 160.242188 119.539062 C 158.667969 121.585938 157.085938 123.632812 155.601562 125.75 C 154.160156 127.808594 152.832031 129.953125 151.460938 132.066406 C 150.324219 133.816406 149.214844 135.585938 147.855469 137.175781 C 147.589844 137.488281 147.296875 137.773438 147.007812 138.058594 C 146.859375 138.207031 146.6875 138.328125 146.417969 138.078125 C 146.480469 137.925781 146.554688 137.75 146.628906 137.570312 C 147.152344 136.328125 147.902344 135.222656 148.648438 134.109375 C 149.816406 132.351562 150.925781 130.550781 152.128906 128.820312 C 153.253906 127.199219 154.46875 125.640625 155.644531 124.054688 C 156.84375 122.429688 158.046875 120.808594 159.238281 119.175781 C 159.871094 118.316406 160.480469 117.441406 161.101562 116.574219 C 161.898438 115.464844 162.53125 114.269531 163.011719 112.941406 C 162.839844 113.097656 162.65625 113.238281 162.5 113.410156 C 161.554688 114.449219 160.582031 115.464844 159.683594 116.546875 C 158.832031 117.574219 158.035156 118.652344 157.261719 119.746094 C 155.976562 121.554688 154.71875 123.390625 153.464844 125.222656 C 152.097656 127.226562 150.722656 129.230469 149.394531 131.257812 C 148.460938 132.683594 147.613281 134.160156 146.703125 135.597656 C 146.363281 136.132812 145.957031 136.625 145.574219 137.128906 C 145.507812 137.21875 145.425781 137.316406 145.328125 137.359375 C 145.21875 137.410156 145.050781 137.460938 144.964844 137.414062 C 144.886719 137.367188 144.835938 137.171875 144.867188 137.070312 C 144.949219 136.789062 145.046875 136.507812 145.195312 136.253906 C 146.023438 134.820312 146.882812 133.40625 147.699219 131.960938 C 148.648438 130.285156 149.511719 128.554688 150.503906 126.898438 C 151.8125 124.722656 153.203125 122.59375 154.570312 120.449219 C 155.519531 118.953125 156.515625 117.488281 157.433594 115.976562 C 158.160156 114.777344 158.796875 113.527344 159.394531 112.234375 C 159.285156 112.324219 159.160156 112.402344 159.066406 112.507812 C 157.492188 114.351562 155.878906 116.167969 154.359375 118.058594 C 153.625 118.972656 153.042969 120.015625 152.425781 121.019531 C 151.425781 122.640625 150.425781 124.265625 149.480469 125.921875 C 148.511719 127.613281 147.621094 129.351562 146.679688 131.058594 C 145.738281 132.765625 144.78125 134.46875 143.8125 136.164062 C 143.683594 136.390625 143.578125 136.84375 143.207031 136.617188 C 142.902344 136.429688 143.222656 136.128906 143.328125 135.902344 C 143.992188 134.433594 144.660156 132.964844 145.347656 131.507812 C 145.648438 130.878906 145.996094 130.269531 146.226562 129.578125 C 145.882812 130.007812 145.535156 130.429688 145.203125 130.867188 C 144.546875 131.738281 143.917969 132.628906 143.238281 133.480469 C 143.058594 133.707031 142.847656 134.21875 142.484375 133.945312 C 142.179688 133.714844 142.589844 133.382812 142.71875 133.121094 C 143.40625 131.738281 144.144531 130.382812 144.8125 128.992188 C 145.742188 127.042969 146.761719 125.144531 147.894531 123.308594 C 148.109375 122.964844 148.292969 122.609375 148.492188 122.257812 C 148.453125 122.230469 148.414062 122.207031 148.375 122.183594 C 148.035156 122.664062 147.6875 123.144531 147.347656 123.632812 C 145.78125 125.910156 144.21875 128.195312 142.640625 130.46875 C 142.023438 131.363281 141.375 132.242188 140.71875 133.109375 C 140.519531 133.378906 140.261719 133.613281 140 133.820312 C 139.902344 133.894531 139.664062 133.902344 139.566406 133.832031 C 139.484375 133.769531 139.457031 133.546875 139.488281 133.417969 C 139.550781 133.179688 139.664062 132.949219 139.78125 132.730469 C 141.355469 129.765625 142.890625 126.777344 144.53125 123.84375 C 145.574219 121.984375 146.785156 120.21875 147.882812 118.390625 C 148.269531 117.753906 148.5625 117.0625 148.875 116.382812 C 148.957031 116.203125 148.941406 115.972656 148.988281 115.640625 C 148.507812 115.898438 148.265625 116.203125 148.050781 116.503906 C 147.109375 117.835938 146.171875 119.175781 145.261719 120.527344 C 144.386719 121.824219 143.539062 123.140625 142.683594 124.449219 C 141.8125 125.777344 140.964844 127.121094 140.0625 128.425781 C 139.558594 129.148438 138.964844 129.808594 138.40625 130.492188 C 138.335938 130.578125 138.25 130.675781 138.152344 130.710938 C 138.015625 130.757812 137.8125 130.808594 137.730469 130.742188 C 137.640625 130.671875 137.636719 130.46875 137.640625 130.324219 C 137.644531 130.21875 137.722656 130.113281 137.769531 130.011719 C 139.273438 126.902344 140.988281 123.910156 142.828125 120.988281 C 143.722656 119.566406 144.601562 118.132812 145.480469 116.703125 C 145.632812 116.453125 145.765625 116.1875 145.890625 115.917969 C 146.019531 115.652344 146.082031 115.371094 145.941406 114.960938 C 145.667969 115.175781 145.425781 115.324219 145.238281 115.527344 C 144.347656 116.46875 143.558594 117.476562 142.917969 118.617188 C 142.109375 120.058594 141.1875 121.441406 140.332031 122.855469 C 139.519531 124.195312 138.738281 125.550781 137.921875 126.882812 C 137.636719 127.347656 137.289062 127.769531 136.960938 128.203125 C 136.867188 128.324219 136.742188 128.4375 136.609375 128.519531 C 136.335938 128.691406 136.09375 128.566406 136.117188 128.238281 C 136.136719 127.949219 136.207031 127.648438 136.332031 127.386719 C 136.820312 126.363281 137.316406 125.34375 137.851562 124.34375 C 138.789062 122.582031 139.734375 120.820312 140.71875 119.082031 C 141.507812 117.679688 142.371094 116.316406 143.179688 114.921875 C 143.472656 114.414062 143.707031 113.875 143.910156 113.304688 C 143.441406 113.539062 143.085938 113.886719 142.796875 114.292969 C 142.070312 115.308594 141.378906 116.347656 140.644531 117.355469 C 139.519531 118.902344 138.617188 120.582031 137.675781 122.238281 C 137.082031 123.285156 136.445312 124.308594 135.800781 125.320312 C 135.609375 125.617188 135.328125 125.867188 135.054688 126.105469 C 134.859375 126.277344 134.59375 126.335938 134.371094 126.136719 C 134.167969 125.949219 134.257812 125.714844 134.367188 125.507812 C 135.179688 123.988281 135.953125 122.441406 136.816406 120.949219 C 137.953125 118.988281 139.160156 117.0625 140.339844 115.125 C 140.695312 114.542969 141.066406 113.972656 141.417969 113.390625 C 141.597656 113.085938 141.746094 112.761719 141.90625 112.449219 C 141.867188 112.410156 141.828125 112.375 141.785156 112.335938 C 141.617188 112.457031 141.4375 112.570312 141.28125 112.703125 C 140.140625 113.671875 139.332031 114.90625 138.511719 116.136719 C 137.507812 117.648438 136.5 119.160156 135.476562 120.660156 C 135.277344 120.957031 135.015625 121.21875 134.75 121.457031 C 134.65625 121.539062 134.421875 121.570312 134.324219 121.507812 C 134.226562 121.441406 134.148438 121.226562 134.175781 121.101562 C 134.238281 120.820312 134.347656 120.539062 134.484375 120.28125 C 135.523438 118.339844 136.578125 116.40625 137.621094 114.46875 C 137.671875 114.378906 137.699219 114.273438 137.792969 114.03125 C 137.421875 114.261719 137.171875 114.417969 136.8125 114.640625 C 136.816406 114.414062 136.761719 114.242188 136.824219 114.152344 C 137.230469 113.558594 137.804688 113.148438 138.445312 112.84375 C 138.738281 112.703125 138.9375 112.898438 138.832031 113.230469 C 138.742188 113.507812 138.597656 113.769531 138.457031 114.027344 C 137.480469 115.820312 136.492188 117.609375 135.511719 119.398438 C 135.472656 119.472656 135.457031 119.558594 135.53125 119.703125 C 135.90625 119.15625 136.285156 118.613281 136.65625 118.0625 C 137.816406 116.355469 138.875 114.574219 140.261719 113.035156 C 140.578125 112.683594 140.929688 112.351562 141.308594 112.066406 C 141.554688 111.886719 141.867188 111.761719 142.167969 111.699219 C 142.613281 111.605469 142.773438 111.816406 142.605469 112.234375 C 142.488281 112.527344 142.339844 112.8125 142.175781 113.085938 C 140.640625 115.628906 139.125 118.1875 137.546875 120.707031 C 136.664062 122.113281 135.839844 123.542969 135.214844 125.117188 C 135.332031 124.980469 135.464844 124.855469 135.558594 124.707031 C 136.238281 123.605469 136.945312 122.519531 137.570312 121.386719 C 139.074219 118.683594 140.789062 116.117188 142.695312 113.683594 C 142.988281 113.3125 143.339844 112.984375 143.675781 112.648438 C 143.785156 112.539062 143.929688 112.449219 144.074219 112.402344 C 144.34375 112.308594 144.554688 112.4375 144.519531 112.722656 C 144.472656 113.144531 144.398438 113.585938 144.222656 113.96875 C 143.929688 114.605469 143.546875 115.199219 143.203125 115.8125 C 141.949219 118.023438 140.683594 120.226562 139.449219 122.449219 C 138.710938 123.777344 138.019531 125.128906 137.308594 126.472656 C 137.226562 126.625 137.164062 126.789062 137.199219 127.007812 C 137.578125 126.429688 137.976562 125.859375 138.335938 125.269531 C 139.503906 123.347656 140.644531 121.414062 141.816406 119.496094 C 142.773438 117.925781 143.695312 116.328125 145.058594 115.058594 C 145.273438 114.855469 145.496094 114.652344 145.742188 114.5 C 146.109375 114.277344 146.410156 114.398438 146.527344 114.816406 C 146.589844 115.023438 146.605469 115.277344 146.542969 115.480469 C 146.421875 115.886719 146.277344 116.304688 146.0625 116.671875 C 145.246094 118.035156 144.378906 119.367188 143.5625 120.730469 C 142.273438 122.867188 141.003906 125.015625 139.742188 127.167969 C 139.414062 127.730469 139.15625 128.332031 138.863281 128.917969 C 138.90625 128.949219 138.949219 128.976562 138.992188 129.007812 C 139.128906 128.828125 139.28125 128.652344 139.410156 128.464844 C 140.457031 126.898438 141.496094 125.328125 142.542969 123.765625 C 144.144531 121.367188 145.734375 118.964844 147.363281 116.589844 C 147.71875 116.074219 148.214844 115.652344 148.675781 115.222656 C 148.804688 115.101562 149.101562 115 149.214844 115.066406 C 149.371094 115.164062 149.527344 115.4375 149.503906 115.617188 C 149.445312 116.105469 149.371094 116.617188 149.164062 117.058594 C 148.777344 117.875 148.3125 118.660156 147.84375 119.4375 C 146.4375 121.769531 144.972656 124.066406 143.613281 126.421875 C 142.613281 128.152344 141.746094 129.953125 140.820312 131.722656 C 140.789062 131.777344 140.789062 131.847656 140.746094 132.039062 C 140.929688 131.882812 141.054688 131.808594 141.132812 131.703125 C 142.375 129.96875 143.609375 128.230469 144.84375 126.488281 C 146.328125 124.398438 147.804688 122.304688 149.296875 120.21875 C 149.449219 120 149.65625 119.8125 149.859375 119.640625 C 149.925781 119.585938 150.097656 119.585938 150.171875 119.636719 C 150.242188 119.683594 150.304688 119.84375 150.277344 119.921875 C 150.191406 120.175781 150.085938 120.429688 149.953125 120.664062 C 148.773438 122.738281 147.566406 124.792969 146.417969 126.882812 C 145.730469 128.128906 145.136719 129.429688 144.597656 130.785156 C 144.734375 130.632812 144.882812 130.492188 145.007812 130.332031 C 145.960938 129.140625 146.992188 128.027344 148.132812 127.015625 C 148.378906 126.796875 148.585938 126.511719 148.75 126.222656 C 150.410156 123.351562 152.058594 120.46875 154.015625 117.792969 C 155.085938 116.332031 156.308594 114.980469 157.488281 113.601562 C 158.152344 112.828125 158.851562 112.082031 159.566406 111.359375 C 159.992188 110.929688 160.019531 110.957031 160.601562 110.949219 "/>
</g>
</g>
</svg>
